<svg width="18" height="14" viewBox="0 0 18 14" fill="none" xmlns="http://www.w3.org/2000/svg">
<path d="M7.84 1.58H2.24V6.18H7.2V7.76H2.24V12.44H7.94V14H0.34V-9.53674e-07H7.84V1.58ZM10.1442 14V5H11.9642V5.7C12.6576 5.12667 13.5042 4.84 14.5042 4.84C15.5309 4.84 16.3509 5.18667 16.9642 5.88C17.5776 6.57333 17.8842 7.48 17.8842 8.6V14H16.0442V8.6C16.0442 7.97333 15.8576 7.46667 15.4842 7.08C15.1242 6.68 14.6442 6.48 14.0442 6.48C13.1642 6.48 12.4709 6.75333 11.9642 7.3V14H10.1442Z" fill="#6969B9"/>
</svg>