<svg width="170" height="60" viewBox="0 0 170 60" fill="none" xmlns="http://www.w3.org/2000/svg">
<g clip-path="url(#clip0_1342_87)">
<path d="M57.7417 26.6735C57.7417 24.0489 59.878 21.9126 62.5026 21.9126C65.1273 21.9126 67.2636 24.0489 67.2636 26.6735C67.2636 29.2982 65.1273 31.4345 62.5026 31.4345C59.878 31.4345 57.7417 29.2982 57.7417 26.6735Z" fill="#FADF4F"/>
<path d="M51.3325 18.9827C51.3325 16.2971 53.5299 14.0997 56.2155 14.0997C58.9012 14.0997 61.0985 16.2971 61.0985 18.9827C61.0985 21.6684 58.9012 23.8658 56.2155 23.8658C53.5299 23.8658 51.3325 21.6684 51.3325 18.9827Z" fill="#FADF4F"/>
<path d="M70.4985 29.176C70.4985 26.5514 72.6349 24.415 75.2595 24.415C77.8841 24.415 80.0204 26.5514 80.0204 29.176C80.0204 31.8006 77.8841 33.9369 75.2595 33.9369C72.6349 33.9369 70.4985 31.8006 70.4985 29.176Z" fill="#FADF4F"/>
<path d="M76.4189 20.8749C76.4189 18.2503 78.5553 16.114 81.1799 16.114C83.8045 16.114 85.9408 18.2503 85.9408 20.8749C85.9408 23.4996 83.8045 25.6359 81.1799 25.6359C78.5553 25.6359 76.4189 23.4996 76.4189 20.8749Z" fill="#FADF4F"/>
<path d="M60.3052 36.0123C60.3052 33.3877 62.4415 31.2513 65.0661 31.2513C67.6907 31.2513 69.827 33.3877 69.827 36.0123C69.827 38.6369 67.6907 40.7732 65.0661 40.7732C62.4415 40.7732 60.3052 38.6369 60.3052 36.0123Z" fill="#FADF4F"/>
<path d="M38.2095 13.6725C38.2095 10.8037 40.5289 8.42322 43.4587 8.42322C46.3275 8.42322 48.7079 10.7426 48.7079 13.6725C48.7079 16.5412 46.3885 18.9217 43.4587 18.9217C40.5899 18.8607 38.2095 16.5412 38.2095 13.6725Z" fill="#FADF4F"/>
<path d="M65.3711 19.5931C65.3711 16.7243 67.6905 14.3439 70.6203 14.3439C73.4891 14.3439 75.8696 16.6633 75.8696 19.5931C75.8696 22.4619 73.5501 24.8423 70.6203 24.8423C67.6905 24.8423 65.3711 22.5229 65.3711 19.5931Z" fill="#FADF4F"/>
<path d="M17.7007 21.6684C17.7007 19.1048 19.776 16.9685 22.4006 16.9685C24.9642 16.9685 27.1005 19.0438 27.1005 21.6684C27.1005 24.232 25.0252 26.3683 22.4006 26.3683C19.837 26.3683 17.7007 24.232 17.7007 21.6684Z" fill="#FADF4F"/>
<path d="M48.0977 42.3602C48.0977 39.7966 50.1729 37.6603 52.7976 37.6603C55.3611 37.6603 57.4974 39.7356 57.4974 42.3602C57.4974 44.9238 55.4222 47.0601 52.7976 47.0601C50.234 47.0601 48.0977 44.9848 48.0977 42.3602Z" fill="#FADF4F"/>
<path d="M38.5146 37.5382C38.5146 34.6694 40.8341 32.2889 43.7639 32.2889C46.6327 32.2889 49.0131 34.6084 49.0131 37.5382C49.0131 40.4069 46.6937 42.7874 43.7639 42.7874C40.8341 42.7874 38.5146 40.4069 38.5146 37.5382Z" fill="#FADF4F"/>
<path d="M6.104 17.7619C6.104 14.8932 8.42343 12.5127 11.3532 12.5127C14.222 12.5127 16.6025 14.8321 16.6025 17.7619C16.6025 20.6307 14.283 23.0112 11.3532 23.0112C8.42343 23.0112 6.104 20.6917 6.104 17.7619Z" fill="#FADF4F"/>
<path d="M14.771 8.85053C14.771 7.996 15.5034 7.26355 16.358 7.26355C17.2125 7.26355 17.945 7.996 17.945 8.85053C17.945 9.70506 17.2125 10.4375 16.358 10.4375C15.5034 10.4375 14.771 9.70506 14.771 8.85053Z" fill="#FADF4F"/>
<path d="M16.3579 11.6583C16.3579 10.8037 17.0904 10.0713 17.9449 10.0713C18.7994 10.0713 19.5319 10.8037 19.5319 11.6583C19.5319 12.5128 18.7994 13.2452 17.9449 13.2452C17.0904 13.2452 16.3579 12.5738 16.3579 11.6583Z" fill="#FADF4F"/>
<path d="M11.536 10.6816C11.475 9.705 12.2685 8.91151 13.184 8.91151C14.1606 8.85047 14.9541 9.64396 14.9541 10.5595C15.0152 11.5361 14.2217 12.3296 13.3061 12.3296C12.3905 12.3907 11.5971 11.6582 11.536 10.6816Z" fill="#FADF4F"/>
<path d="M42.9707 23.3165C42.9707 20.875 44.9849 18.8607 47.4264 18.8607C49.868 18.8607 51.8822 20.875 51.8822 23.3165C51.8822 25.758 49.868 27.7722 47.4264 27.7722C44.9849 27.7722 42.9707 25.819 42.9707 23.3165Z" fill="#FADF4F"/>
<path d="M36.0732 24.8424C36.0732 23.0723 37.4771 21.6685 39.2472 21.6685C41.0173 21.6685 42.4212 23.0723 42.4212 24.8424C42.4212 26.6125 41.0173 28.0164 39.2472 28.0164C37.4771 28.0164 36.0732 26.6125 36.0732 24.8424Z" fill="#FADF4F"/>
<path d="M57.8027 43.0927C57.8027 41.3226 59.2066 39.9187 60.9767 39.9187C62.7468 39.9187 64.1506 41.3226 64.1506 43.0927C64.1506 44.8627 62.7468 46.2666 60.9767 46.2666C59.2066 46.2666 57.8027 44.8627 57.8027 43.0927Z" fill="#FADF4F"/>
<path d="M47.3652 7.20249C47.3652 5.79863 48.4639 4.69995 49.8678 4.69995C51.2716 4.69995 52.3703 5.79863 52.3703 7.20249C52.3703 8.60636 51.2716 9.70504 49.8678 9.70504C48.4639 9.70504 47.3652 8.60636 47.3652 7.20249Z" fill="#FADF4F"/>
<path d="M52.187 4.822C52.187 3.41814 53.2857 2.31946 54.6896 2.31946C56.0934 2.31946 57.1921 3.41814 57.1921 4.822C57.1921 6.22587 56.0934 7.32454 54.6896 7.32454C53.2857 7.32454 52.187 6.22587 52.187 4.822Z" fill="#FADF4F"/>
<path d="M51.7598 11.5361C51.7598 10.1322 52.8584 9.03357 54.2623 9.03357C55.6662 9.03357 56.7648 10.1322 56.7648 11.5361C56.7648 12.94 55.6662 14.0387 54.2623 14.0387C52.8584 14.0387 51.7598 12.94 51.7598 11.5361Z" fill="#FADF4F"/>
<path d="M14.4048 29.6643C14.4048 28.2604 15.5035 27.1617 16.9073 27.1617C18.3112 27.1617 19.4099 28.2604 19.4099 29.6643C19.4099 31.0682 18.3112 32.1668 16.9073 32.1668C15.5035 32.1668 14.4048 31.0071 14.4048 29.6643Z" fill="#FADF4F"/>
<path d="M0 25.5748C0 24.1709 1.09868 23.0723 2.50254 23.0723C3.90641 23.0723 5.00509 24.1709 5.00509 25.5748C5.00509 26.9787 3.90641 28.0774 2.50254 28.0774C1.09868 28.0774 0 26.9176 0 25.5748Z" fill="#FADF4F"/>
<path d="M11.1699 5.31028C11.1699 3.90642 12.2686 2.80774 13.6725 2.80774C15.0763 2.80774 16.175 3.90642 16.175 5.31028C16.175 6.71415 15.0763 7.81283 13.6725 7.81283C12.2686 7.81283 11.1699 6.71415 11.1699 5.31028Z" fill="#FADF4F"/>
<path d="M2.74658 19.5931C2.74658 18.7386 3.418 18.0671 4.27252 18.0671C5.12705 18.0671 5.79846 18.7386 5.79846 19.5931C5.79846 20.4476 5.12705 21.119 4.27252 21.119C3.418 21.119 2.74658 20.4476 2.74658 19.5931Z" fill="#FADF4F"/>
<path d="M33.4487 35.4629C33.4487 34.059 34.5474 32.9603 35.9513 32.9603C37.3551 32.9603 38.4538 34.059 38.4538 35.4629C38.4538 36.8667 37.3551 37.9654 35.9513 37.9654C34.5474 37.9654 33.4487 36.8667 33.4487 35.4629Z" fill="#FADF4F"/>
<path d="M34.4253 30.2137C34.4253 28.8099 35.524 27.7112 36.9278 27.7112C38.3317 27.7112 39.4304 28.8099 39.4304 30.2137C39.4304 31.6176 38.3317 32.7163 36.9278 32.7163C35.524 32.7163 34.4253 31.6176 34.4253 30.2137Z" fill="#FADF4F"/>
<path d="M29.1147 29.4201C29.1147 28.0163 30.2134 26.9176 31.6173 26.9176C33.0212 26.9176 34.1198 28.0163 34.1198 29.4201C34.1198 30.824 33.0212 31.9227 31.6173 31.9227C30.2134 31.9227 29.1147 30.824 29.1147 29.4201Z" fill="#FADF4F"/>
<path d="M47.3042 2.50252C47.3042 1.40385 48.2198 0.488281 49.3184 0.488281C50.4171 0.488281 51.3327 1.40385 51.3327 2.50252C51.3327 3.6012 50.4171 4.51677 49.3184 4.51677C48.2198 4.51677 47.3042 3.6012 47.3042 2.50252Z" fill="#FADF4F"/>
<path d="M35.3408 8.66744C35.3408 7.56876 36.2564 6.6532 37.3551 6.6532C38.4537 6.6532 39.3693 7.56876 39.3693 8.66744C39.3693 9.76612 38.4537 10.6817 37.3551 10.6817C36.2564 10.6817 35.3408 9.76612 35.3408 8.66744Z" fill="#FADF4F"/>
<path d="M25.5137 8.78948C26.4292 8.1791 27.711 8.48429 28.3214 9.39985C28.9318 10.3154 28.6266 11.5972 27.711 12.2076C26.7955 12.818 25.5137 12.5128 24.9033 11.5972C24.354 10.6206 24.5981 9.39985 25.5137 8.78948Z" fill="#FADF4F"/>
<path d="M22.2175 5.79863C23.133 5.18826 24.4148 5.49344 25.0252 6.40901C25.6356 7.32457 25.3304 8.60636 24.4148 9.21674C23.4993 9.82712 22.2175 9.52193 21.6071 8.60636C20.9967 7.62976 21.3019 6.34797 22.2175 5.79863Z" fill="#FADF4F"/>
<path d="M20.814 9.94915C21.7295 9.33877 23.0113 9.64396 23.6217 10.5595C24.2321 11.4751 23.9269 12.7569 23.0113 13.3673C22.0958 13.9776 20.814 13.6724 20.2036 12.7569C19.6543 11.7803 19.8984 10.5595 20.814 9.94915Z" fill="#FADF4F"/>
<path d="M31.7395 12.3296C32.655 11.7193 33.9368 12.0245 34.5472 12.94C35.1576 13.8556 34.8524 15.1374 33.9368 15.7477C33.0212 16.3581 31.7395 16.0529 31.1291 15.1374C30.5187 14.1608 30.8239 12.879 31.7395 12.3296Z" fill="#FADF4F"/>
<path d="M67.5078 51.76C67.5078 50.6613 68.4234 49.7457 69.5221 49.7457C70.6207 49.7457 71.5363 50.6613 71.5363 51.76C71.5363 52.8586 70.6207 53.7742 69.5221 53.7742C68.4234 53.7742 67.5078 52.8586 67.5078 51.76Z" fill="#FADF4F"/>
<path d="M57.7417 55.6053C57.7417 54.5066 58.6573 53.5911 59.7559 53.5911C60.8546 53.5911 61.7702 54.5066 61.7702 55.6053C61.7702 56.704 60.8546 57.6195 59.7559 57.6195C58.6573 57.6195 57.7417 56.765 57.7417 55.6053Z" fill="#FADF4F"/>
<path d="M56.0327 48.2808C56.0327 47.1822 56.9483 46.2666 58.047 46.2666C59.1456 46.2666 60.0612 47.1822 60.0612 48.2808C60.0612 49.3795 59.1456 50.2951 58.047 50.2951C56.9483 50.2951 56.0327 49.3795 56.0327 48.2808Z" fill="#FADF4F"/>
<path d="M43.0928 3.2961C43.0928 2.19743 44.0083 1.28186 45.107 1.28186C46.2057 1.28186 47.1213 2.19743 47.1213 3.2961C47.1213 4.39478 46.2057 5.31034 45.107 5.31034C44.0083 5.31034 43.0928 4.45582 43.0928 3.2961Z" fill="#FADF4F"/>
<path d="M58.5352 10.1933C58.5352 9.09464 59.4507 8.17908 60.5494 8.17908C61.6481 8.17908 62.5636 9.09464 62.5636 10.1933C62.5636 11.292 61.6481 12.2076 60.5494 12.2076C59.4507 12.2076 58.5352 11.292 58.5352 10.1933Z" fill="#FADF4F"/>
<path d="M40.834 4.02848C40.834 3.47915 41.2612 2.99084 41.8716 2.99084C42.421 2.99084 42.9093 3.41811 42.9093 4.02848C42.9093 4.57782 42.482 5.06612 41.8716 5.06612C41.2612 5.06612 40.834 4.63886 40.834 4.02848Z" fill="#FADF4F"/>
<path d="M42.2383 5.9207C42.2383 5.37136 42.6655 4.88306 43.2759 4.88306C43.8253 4.88306 44.3136 5.31032 44.3136 5.9207C44.3136 6.47004 43.8863 6.95834 43.2759 6.95834C42.6655 6.8973 42.2383 6.47004 42.2383 5.9207Z" fill="#FADF4F"/>
<path d="M49.4404 10.8648C49.4404 10.3154 49.8677 9.82715 50.4781 9.82715C51.0274 9.82715 51.5157 10.2544 51.5157 10.8648C51.5157 11.4141 51.0884 11.9024 50.4781 11.9024C49.8677 11.8414 49.4404 11.4141 49.4404 10.8648Z" fill="#FADF4F"/>
<path d="M62.8076 14.2218C62.8076 13.6725 63.2349 13.1842 63.8453 13.1842C64.3946 13.1842 64.8829 13.6115 64.8829 14.2218C64.8829 14.7712 64.4556 15.2595 63.8453 15.2595C63.2349 15.2595 62.8076 14.7712 62.8076 14.2218Z" fill="#FADF4F"/>
<path d="M33.7539 45.9003C34.3032 45.8393 34.7915 46.2666 34.8526 46.8159C34.9136 47.3652 34.4864 47.8536 33.937 47.9146C33.3877 47.9756 32.8994 47.5484 32.8383 46.999C32.7773 46.3886 33.2046 45.9003 33.7539 45.9003Z" fill="#FADF4F"/>
<path d="M31.1904 48.0977C31.7398 48.0367 32.2281 48.464 32.2891 49.0133C32.3501 49.5626 31.9229 50.0509 31.3735 50.112C30.8242 50.173 30.3359 49.7457 30.2749 49.1964C30.2138 48.586 30.6411 48.0977 31.1904 48.0977Z" fill="#FADF4F"/>
<path d="M34.5474 43.825C35.0967 43.764 35.585 44.1913 35.646 44.7406C35.7071 45.2899 35.2798 45.7782 34.7305 45.8393C34.1811 45.9003 33.6928 45.473 33.6318 44.9237C33.5708 44.3744 33.998 43.8861 34.5474 43.825Z" fill="#FADF4F"/>
<path d="M66.2259 13.1232C66.8973 13.0621 67.5077 13.6115 67.5687 14.2829C67.6297 14.9543 67.0804 15.5647 66.409 15.6257C65.7376 15.6868 65.1272 15.1374 65.0662 14.466C65.0051 13.7946 65.5545 13.1232 66.2259 13.1232Z" fill="#FADF4F"/>
<path d="M34.6084 26.1241C35.1577 26.0631 35.646 26.4903 35.7071 27.0397C35.7681 27.589 35.3408 28.0773 34.7915 28.1383C34.2422 28.1994 33.7539 27.7721 33.6928 27.2228C33.6318 26.6124 34.0591 26.1241 34.6084 26.1241Z" fill="#FADF4F"/>
<path d="M46.8769 42.055C47.4263 41.994 47.9146 42.4212 47.9756 42.9706C48.0367 43.5199 47.6094 44.0082 47.0601 44.0692C46.5107 44.1303 46.0224 43.703 45.9614 43.1537C45.9003 42.6043 46.3276 42.116 46.8769 42.055Z" fill="#FADF4F"/>
<path d="M34.7915 23.8048C35.3408 23.7437 35.8291 24.171 35.8902 24.7203C35.9512 25.2697 35.5239 25.758 34.9746 25.819C34.4253 25.88 33.937 25.4528 33.8759 24.9034C33.8149 24.3541 34.2422 23.8658 34.7915 23.8048Z" fill="#FADF4F"/>
<path d="M50.8442 50.295C51.3936 50.234 51.8819 50.6612 51.9429 51.2106C52.0039 51.7599 51.5767 52.2482 51.0273 52.3092C50.478 52.3703 49.9897 51.943 49.9287 51.3937C49.8676 50.8443 50.2949 50.356 50.8442 50.295Z" fill="#FADF4F"/>
<path d="M64.7607 51.6379C65.3101 51.5769 65.7984 52.0041 65.8594 52.5535C65.9205 53.1028 65.4932 53.5911 64.9438 53.6521C64.3945 53.7132 63.9062 53.2859 63.8452 52.7366C63.7841 52.1872 64.2114 51.6989 64.7607 51.6379Z" fill="#FADF4F"/>
<path d="M63.9062 53.8353C64.4556 53.7742 64.9439 54.2015 65.0049 54.7508C65.066 55.3002 64.6387 55.7885 64.0894 55.8495C63.54 55.9106 63.0517 55.4833 62.9907 54.934C62.9296 54.3236 63.3569 53.8353 63.9062 53.8353Z" fill="#FADF4F"/>
<path d="M56.8872 52.9196C57.4365 52.8586 57.9248 53.2859 57.9859 53.8352C58.0469 54.3845 57.6197 54.8728 57.0703 54.9339C56.521 54.9949 56.0327 54.5677 55.9716 54.0183C55.9106 53.469 56.3379 52.9807 56.8872 52.9196Z" fill="#FADF4F"/>
<path d="M53.0415 51.0886C53.5908 51.0275 54.0791 51.4548 54.1402 52.0041C54.2012 52.5535 53.7739 53.0418 53.2246 53.1028C52.6753 53.1639 52.187 52.7366 52.1259 52.1873C52.0649 51.5769 52.4922 51.0886 53.0415 51.0886Z" fill="#FADF4F"/>
<path d="M34.9136 5.31026C35.4629 5.24922 35.9512 5.67648 36.0122 6.22582C36.0733 6.77516 35.646 7.26346 35.0967 7.3245C34.5473 7.38554 34.059 6.95827 33.998 6.40894C33.937 5.8596 34.3642 5.3713 34.9136 5.31026Z" fill="#FADF4F"/>
<path d="M33.876 9.88814C34.4253 9.8271 34.9136 10.2544 34.9746 10.8037C35.0357 11.353 34.6084 11.8413 34.0591 11.9024C33.5097 11.9634 33.0214 11.5362 32.9604 10.9868C32.8994 10.3764 33.3266 9.88814 33.876 9.88814Z" fill="#FADF4F"/>
<path d="M52.4922 0.427324C53.0415 0.366286 53.5298 0.79355 53.5909 1.34289C53.6519 1.89223 53.2246 2.38053 52.6753 2.44157C52.126 2.5026 51.6377 2.07534 51.5766 1.526C51.5156 0.915625 51.9428 0.427324 52.4922 0.427324Z" fill="#FADF4F"/>
<path d="M54.8729 7.76839e-05C55.4222 -0.06096 55.9105 0.366304 55.9715 0.915642C56.0326 1.46498 55.6053 1.95328 55.056 2.01432C54.5066 2.07536 54.0183 1.64809 53.9573 1.09876C53.8963 0.488379 54.2625 0.0611153 54.8729 7.76839e-05Z" fill="#FADF4F"/>
<path d="M39.4302 3.41817C39.9796 3.35713 40.4679 3.78439 40.5289 4.33373C40.5899 4.88307 40.1627 5.37137 39.6133 5.43241C39.003 5.49345 38.5147 5.06618 38.4536 4.45581C38.4536 3.90647 38.8809 3.47921 39.4302 3.41817Z" fill="#FADF4F"/>
<path d="M19.5933 8.42317C20.1426 8.36214 20.6309 8.7894 20.6919 9.33874C20.753 9.88808 20.3257 10.3764 19.7764 10.4374C19.227 10.4985 18.7387 10.0712 18.6777 9.52185C18.6167 8.97251 19.0439 8.48421 19.5933 8.42317Z" fill="#FADF4F"/>
<path d="M21.4853 3.41817C22.0347 3.35713 22.523 3.78439 22.584 4.33373C22.6451 4.88307 22.2178 5.37137 21.6685 5.43241C21.1191 5.49345 20.6308 5.06618 20.5698 4.51685C20.5087 3.96751 20.936 3.47921 21.4853 3.41817Z" fill="#FADF4F"/>
<path d="M18.5557 6.10384C19.105 6.0428 19.5933 6.47006 19.6543 7.0194C19.7154 7.56874 19.2881 8.05704 18.7388 8.11808C18.1894 8.17912 17.7011 7.75185 17.6401 7.20252C17.5791 6.65318 18.0063 6.16488 18.5557 6.10384Z" fill="#FADF4F"/>
<path d="M9.82714 4.63887C10.3765 4.57783 10.8648 5.0051 10.9258 5.55444C10.9869 6.10378 10.5596 6.59208 10.0103 6.65311C9.46091 6.71415 8.97261 6.28689 8.91158 5.73755C8.85054 5.12717 9.2778 4.63887 9.82714 4.63887Z" fill="#FADF4F"/>
<path d="M10.3152 10.3764C10.8646 10.3154 11.3529 10.7426 11.4139 11.292C11.475 11.8413 11.0477 12.3296 10.4984 12.3907C9.94901 12.4517 9.46071 12.0244 9.39967 11.4751C9.33864 10.9258 9.70486 10.4375 10.3152 10.3764Z" fill="#FADF4F"/>
<path d="M20.3867 26.4293C20.9361 26.3682 21.4244 26.7955 21.4854 27.3448C21.5464 27.8942 21.1192 28.3825 20.5698 28.4435C20.0205 28.5046 19.5322 28.0773 19.4711 27.528C19.4101 26.9786 19.8374 26.4903 20.3867 26.4293Z" fill="#FADF4F"/>
<path d="M8.85063 22.8892C9.461 22.8282 10.0103 23.3165 10.0714 23.9268C10.1324 24.5372 9.64412 25.0866 9.03374 25.1476C8.42336 25.2086 7.87403 24.7203 7.81299 24.1099C7.81299 23.4996 8.24025 22.9502 8.85063 22.8892Z" fill="#FADF4F"/>
<path d="M13.8555 26.3072C14.4048 26.2462 14.8931 26.6734 14.9541 27.2228C15.0152 27.7721 14.5879 28.2604 14.0386 28.3215C13.4892 28.3825 13.0009 27.9552 12.9399 27.4059C12.8789 26.7955 13.3061 26.3682 13.8555 26.3072Z" fill="#FADF4F"/>
<path d="M18.4944 25.2696C19.0438 25.2086 19.5321 25.6358 19.5931 26.1852C19.6542 26.7345 19.2269 27.2228 18.6776 27.2839C18.1282 27.3449 17.6399 26.9176 17.5789 26.3683C17.5178 25.7579 17.8841 25.2696 18.4944 25.2696Z" fill="#FADF4F"/>
<path d="M25.5137 25.88C26.063 25.8189 26.5513 26.2462 26.6123 26.7955C26.6734 27.3449 26.2461 27.8332 25.6968 27.8942C25.1474 27.9552 24.6591 27.528 24.5981 26.9786C24.5371 26.3683 24.9643 25.941 25.5137 25.88Z" fill="#FADF4F"/>
<path d="M28.2602 21.5463C28.8096 21.4853 29.2979 21.9126 29.3589 22.4619C29.42 23.0112 28.9927 23.4995 28.4434 23.5606C27.894 23.6216 27.4057 23.1944 27.3447 22.645C27.2836 22.0957 27.7109 21.6074 28.2602 21.5463Z" fill="#FADF4F"/>
<path d="M67.2637 40.7121C67.813 40.6511 68.3013 41.0783 68.3623 41.6277C68.4234 42.177 67.9961 42.6653 67.4468 42.7264C66.8974 42.7874 66.4091 42.3601 66.3481 41.8108C66.2871 41.2004 66.7143 40.7121 67.2637 40.7121Z" fill="#FADF4F"/>
<path d="M56.8872 34.7915C57.4365 34.7304 57.9248 35.1577 57.9859 35.707C58.0469 36.2564 57.6197 36.7447 57.0703 36.8057C56.521 36.8667 56.0327 36.4395 55.9716 35.8901C55.9106 35.2798 56.3379 34.7915 56.8872 34.7915Z" fill="#FADF4F"/>
<path d="M54.3848 33.998C54.9341 33.937 55.4224 34.3642 55.4834 34.9136C55.5445 35.4629 55.1172 35.9512 54.5679 36.0122C54.0185 36.0733 53.5302 35.646 53.4692 35.0967C53.4082 34.4863 53.8354 34.059 54.3848 33.998Z" fill="#FADF4F"/>
<path d="M55.0561 23.9879C55.6055 23.9268 56.0938 24.3541 56.1548 24.9034C56.2159 25.4528 55.7886 25.9411 55.2393 26.0021C54.6899 26.0631 54.2016 25.6359 54.1406 25.0865C54.0795 24.4762 54.5068 23.9879 55.0561 23.9879Z" fill="#FADF4F"/>
<path d="M65.4321 42.4823C65.9815 42.4212 66.4698 42.8485 66.5308 43.3978C66.5918 43.9472 66.1646 44.4355 65.6152 44.4965C65.0659 44.5575 64.5776 44.1303 64.5166 43.5809C64.4555 43.0316 64.8828 42.5433 65.4321 42.4823Z" fill="#FADF4F"/>
<path d="M75.7478 37.5993C76.2361 37.3551 76.8465 37.5382 77.0907 38.0265C77.3348 38.5148 77.1517 39.1252 76.6634 39.3693C76.1751 39.6135 75.5647 39.4304 75.3206 38.9421C75.0764 38.4538 75.2595 37.8434 75.7478 37.5993Z" fill="#FADF4F"/>
<path d="M84.6592 29.1761C85.2696 28.8709 86.0631 29.115 86.3683 29.7254C86.6735 30.3358 86.4293 31.1293 85.819 31.4345C85.2086 31.7396 84.4151 31.4955 84.1099 30.8851C83.8047 30.2747 84.0489 29.4813 84.6592 29.1761Z" fill="#FADF4F"/>
<path d="M56.7652 7.01933C57.3756 6.71414 58.1691 6.95829 58.4743 7.56867C58.7794 8.17904 58.5353 8.97253 57.9249 9.27772C57.3145 9.58291 56.521 9.33876 56.2159 8.72838C55.9107 8.118 56.1548 7.38555 56.7652 7.01933Z" fill="#FADF4F"/>
<path d="M77.762 36.0732C78.2503 35.8291 78.8607 36.0122 79.1048 36.5005C79.349 36.9888 79.1659 37.5992 78.6775 37.8433C78.1892 38.0875 77.5789 37.9044 77.3347 37.4161C77.0906 36.9888 77.2737 36.3784 77.762 36.0732Z" fill="#FADF4F"/>
<path d="M80.3255 30.7629C80.8138 30.5188 81.4241 30.7019 81.6683 31.1902C81.9124 31.6785 81.7293 32.2889 81.241 32.533C80.7527 32.7772 80.1423 32.5941 79.8982 32.1058C79.654 31.6785 79.8372 31.0681 80.3255 30.7629Z" fill="#FADF4F"/>
<path d="M85.1477 26.7955C85.636 26.5514 86.2464 26.7345 86.4906 27.2228C86.7347 27.7111 86.5516 28.3215 86.0633 28.5656C85.575 28.8098 84.9646 28.6267 84.7205 28.1384C84.4763 27.6501 84.6594 27.0397 85.1477 26.7955Z" fill="#FADF4F"/>
<path d="M57.3142 11.9024C57.8025 11.6582 58.4129 11.8413 58.6571 12.3296C58.9012 12.8179 58.7181 13.4283 58.2298 13.6724C57.7415 13.9166 57.1311 13.7335 56.887 13.2452C56.6428 12.7569 56.8259 12.1465 57.3142 11.9024Z" fill="#FADF4F"/>
<path d="M77.3958 33.6317C77.8841 33.3876 78.4945 33.5707 78.7386 34.059C78.9828 34.5473 78.7996 35.1577 78.3113 35.4018C77.823 35.646 77.2127 35.4629 76.9685 34.9745C76.7244 34.5473 76.9075 33.9369 77.3958 33.6317Z" fill="#FADF4F"/>
<path d="M84.3539 24.7202C84.8422 24.4761 85.4525 24.6592 85.6967 25.1475C85.9408 25.6358 85.7577 26.2462 85.2694 26.4903C84.7811 26.7345 84.1707 26.5514 83.9266 26.0631C83.6214 25.5747 83.8656 24.9644 84.3539 24.7202Z" fill="#FADF4F"/>
<path d="M22.5229 14.7102C23.0723 14.6491 23.5606 15.0764 23.6216 15.6257C23.6827 16.1751 23.2554 16.6634 22.7061 16.7244C22.1567 16.7854 21.6684 16.3582 21.6074 15.8088C21.5463 15.1985 21.9736 14.7712 22.5229 14.7102Z" fill="#FADF4F"/>
<path d="M27.5892 27.2839C28.3217 27.2228 28.9931 27.8332 29.0541 28.5657C29.1152 29.2981 28.5048 29.9695 27.7723 30.0306C27.0399 30.0916 26.3685 29.4812 26.3074 28.7488C26.2464 27.9553 26.8568 27.3449 27.5892 27.2839Z" fill="#FADF4F"/>
<path d="M31.4344 20.0204C32.0448 19.9594 32.5941 20.4477 32.6552 21.0581C32.7162 21.6684 32.2279 22.2178 31.6175 22.2788C31.0071 22.3399 30.4578 21.8516 30.3968 21.2412C30.3357 20.6308 30.824 20.0815 31.4344 20.0204Z" fill="#FADF4F"/>
<path d="M52.8587 24.4761C53.4691 24.4151 54.0184 24.9034 54.0795 25.5137C54.1405 26.1241 53.6522 26.6735 53.0418 26.7345C52.4315 26.7955 51.8821 26.3072 51.8211 25.6969C51.76 25.0254 52.2483 24.4761 52.8587 24.4761Z" fill="#FADF4F"/>
<path d="M43.1538 26.9787C43.7641 26.9176 44.3135 27.4059 44.3745 28.0163C44.4356 28.6267 43.9473 29.176 43.3369 29.2371C42.7265 29.2981 42.1772 28.8098 42.1161 28.1994C42.0551 27.528 42.4824 26.9787 43.1538 26.9787Z" fill="#FADF4F"/>
<path d="M12.2686 23.3164C12.7569 23.2553 13.1841 23.6826 13.2452 24.1709C13.3062 24.6592 12.8789 25.0865 12.3906 25.1475C11.9023 25.2085 11.4751 24.7813 11.414 24.293C11.353 23.8047 11.7803 23.3774 12.2686 23.3164Z" fill="#FADF4F"/>
<path d="M17.8231 16.8464C18.3114 16.7854 18.7386 17.2126 18.7997 17.7009C18.8607 18.1892 18.4334 18.6165 17.9451 18.6775C17.4568 18.7386 17.0296 18.3113 16.9685 17.823C16.9075 17.2737 17.2737 16.8464 17.8231 16.8464Z" fill="#FADF4F"/>
<path d="M9.52197 31.8006C10.0713 31.7396 10.5596 32.1668 10.6206 32.7162C10.6817 33.2655 10.2544 33.7538 9.70508 33.8149C9.15574 33.8759 8.66744 33.4486 8.6064 32.8993C8.54536 32.35 8.97263 31.8617 9.52197 31.8006Z" fill="#FADF4F"/>
<path d="M4.6997 27.6501C5.24904 27.5891 5.73734 28.0163 5.79838 28.5657C5.85942 29.115 5.43215 29.6033 4.88281 29.6643C4.27244 29.6643 3.78414 29.2371 3.78414 28.6877C3.7231 28.1384 4.15036 27.6501 4.6997 27.6501Z" fill="#FADF4F"/>
<path d="M15.2593 11.7804C15.8086 11.7193 16.2969 12.1466 16.3579 12.6959C16.419 13.2453 15.9917 13.7336 15.4424 13.7946C14.893 13.8556 14.4047 13.4284 14.3437 12.879C14.2827 12.2687 14.7099 11.7804 15.2593 11.7804Z" fill="#FADF4F"/>
<path d="M16.7855 13.3673C17.3348 13.3062 17.8231 13.7335 17.8841 14.2828C17.9452 14.8322 17.5179 15.3205 16.9686 15.3815C16.4192 15.4425 15.9309 15.0153 15.8699 14.4659C15.8089 13.8556 16.1751 13.3673 16.7855 13.3673Z" fill="#FADF4F"/>
<path d="M28.5654 16.0529C29.1148 15.9919 29.6031 16.4192 29.6641 16.9685C29.7251 17.5178 29.2979 18.0061 28.7485 18.0672C28.1992 18.1282 27.7109 17.701 27.6499 17.1516C27.5888 16.5412 28.0161 16.0529 28.5654 16.0529Z" fill="#FADF4F"/>
<path d="M26.9785 17.4568C27.3448 17.4568 27.65 17.7009 27.711 18.0672C27.711 18.4334 27.4668 18.7386 27.1006 18.7996C26.7344 18.7996 26.4292 18.5555 26.3682 18.1892C26.3071 17.762 26.6123 17.4568 26.9785 17.4568Z" fill="#FADF4F"/>
<path d="M48.8911 27.8943C49.2574 27.8943 49.5626 28.1384 49.6236 28.5047C49.6236 28.8709 49.3794 29.1761 49.0132 29.2371C48.647 29.2371 48.3418 28.993 48.2808 28.6267C48.2197 28.2605 48.5249 27.8943 48.8911 27.8943Z" fill="#FADF4F"/>
<path d="M57.5586 44.6796C57.9248 44.6796 58.23 44.9237 58.2911 45.2899C58.2911 45.6562 58.0469 45.9614 57.6807 46.0224C57.3145 46.0224 57.0093 45.7782 56.9482 45.412C56.8872 45.0458 57.1924 44.6796 57.5586 44.6796Z" fill="#FADF4F"/>
<path d="M64.8828 41.0173C65.2491 41.0173 65.5543 41.2615 65.6153 41.6277C65.6153 41.9939 65.3711 42.2991 65.0049 42.3602C64.6387 42.3602 64.3335 42.116 64.2725 41.7498C64.2114 41.3225 64.4556 41.0173 64.8828 41.0173Z" fill="#FADF4F"/>
<path d="M47.2432 28.1384C47.6094 28.1384 47.9146 28.3826 47.9756 28.7488C47.9756 29.115 47.7315 29.4202 47.3653 29.4813C46.999 29.4813 46.6939 29.2371 46.6328 28.8709C46.5718 28.5047 46.877 28.1384 47.2432 28.1384Z" fill="#FADF4F"/>
<path d="M45.4121 27.6501C45.7784 27.6501 46.0835 27.8943 46.1446 28.2605C46.1446 28.6267 45.9004 28.9319 45.5342 28.993C45.168 28.993 44.8628 28.7488 44.8018 28.3826C44.7407 28.0164 45.0459 27.7112 45.4121 27.6501Z" fill="#FADF4F"/>
<path d="M16.7852 5.73755C17.1514 5.73755 17.4566 5.9817 17.5176 6.34793C17.5176 6.71415 17.2735 7.01934 16.9073 7.08038C16.541 7.08038 16.2358 6.83623 16.1748 6.47C16.1138 6.10378 16.419 5.73755 16.7852 5.73755Z" fill="#FADF4F"/>
<path d="M70.8037 36.6226C71.17 36.6226 71.4752 36.8667 71.5362 37.2329C71.5362 37.5992 71.292 37.9043 70.9258 37.9654C70.5596 37.9654 70.2544 37.7212 70.1934 37.355C70.1323 36.9888 70.4375 36.6836 70.8037 36.6226Z" fill="#FADF4F"/>
<path d="M59.2676 35.1577C59.6338 35.1577 59.939 35.4019 60.0001 35.7681C60.0001 36.1343 59.7559 36.4395 59.3897 36.5005C59.0235 36.5005 58.7183 36.2564 58.6572 35.8902C58.5962 35.4629 58.9014 35.1577 59.2676 35.1577Z" fill="#FADF4F"/>
<path d="M56.0934 33.5096C56.3985 33.5096 56.7037 33.7538 56.7037 34.059C56.7037 34.3642 56.4596 34.6694 56.1544 34.6694C55.8492 34.6694 55.544 34.4252 55.544 34.12C55.483 33.8148 55.7271 33.5096 56.0934 33.5096Z" fill="#FADF4F"/>
<path d="M55.7886 36.9279C56.1548 36.9279 56.46 37.172 56.5211 37.5382C56.5211 37.9045 56.2769 38.2096 55.9107 38.2707C55.5445 38.2707 55.2393 38.0265 55.1782 37.6603C55.1172 37.2941 55.4224 36.9889 55.7886 36.9279Z" fill="#FADF4F"/>
<path d="M54.0791 36.1953C54.4454 36.1953 54.7505 36.4395 54.8116 36.8057C54.8116 37.1719 54.5674 37.4771 54.2012 37.5381C53.835 37.5381 53.5298 37.294 53.4688 36.9278C53.4077 36.5615 53.7129 36.1953 54.0791 36.1953Z" fill="#FADF4F"/>
<path d="M65.0049 15.3815C65.3711 15.3815 65.6763 15.6256 65.7374 15.9918C65.7374 16.3581 65.4932 16.6633 65.127 16.7243C64.7608 16.7243 64.4556 16.4801 64.3945 16.1139C64.3335 15.7477 64.6387 15.4425 65.0049 15.3815Z" fill="#FADF4F"/>
<path d="M56.8262 25.0255C57.1924 25.0255 57.4976 25.2697 57.5587 25.6359C57.5587 26.0021 57.3145 26.3073 56.9483 26.3683C56.5821 26.3683 56.2769 26.1242 56.2158 25.758C56.1548 25.3307 56.46 25.0255 56.8262 25.0255Z" fill="#FADF4F"/>
<path d="M57.6807 29.2371C58.0469 29.2371 58.3521 29.4812 58.4131 29.8474C58.4131 30.2137 58.169 30.5188 57.8028 30.5799C57.4365 30.5799 57.1314 30.3357 57.0703 29.9695C57.0093 29.6033 57.3145 29.2981 57.6807 29.2371Z" fill="#FADF4F"/>
<path d="M57.5586 9.94922C57.9248 9.94922 58.23 10.1934 58.2911 10.5596C58.2911 10.9258 58.0469 11.231 57.6807 11.292C57.3145 11.292 57.0093 11.0479 56.9482 10.6817C56.8872 10.3154 57.1924 10.0103 57.5586 9.94922Z" fill="#FADF4F"/>
<path d="M53.2857 7.38562C53.6519 7.38562 53.9571 7.62977 54.0181 7.996C54.0181 8.36222 53.774 8.66741 53.4077 8.72845C53.0415 8.72845 52.7363 8.4843 52.6753 8.11807C52.6143 7.75185 52.9194 7.44666 53.2857 7.38562Z" fill="#FADF4F"/>
<path d="M54.9947 7.50769C55.3609 7.50769 55.6661 7.75184 55.7271 8.11807C55.7271 8.48429 55.483 8.78948 55.1167 8.85052C54.7505 8.85052 54.4453 8.60637 54.3843 8.24014C54.3843 7.81288 54.6284 7.50769 54.9947 7.50769Z" fill="#FADF4F"/>
<path d="M62.6245 11.5972C62.9908 11.5972 63.296 11.8413 63.357 12.2075C63.357 12.5738 63.1128 12.879 62.7466 12.94C62.3804 12.94 62.0752 12.6958 62.0142 12.3296C61.9531 11.9634 62.2583 11.6582 62.6245 11.5972Z" fill="#FADF4F"/>
<path d="M30.7017 16.9075C31.0679 16.9075 31.3731 17.1516 31.4341 17.5178C31.4341 17.8841 31.19 18.1893 30.8238 18.2503C30.4575 18.2503 30.1523 18.0061 30.0913 17.6399C30.0303 17.2737 30.3355 16.9685 30.7017 16.9075Z" fill="#FADF4F"/>
<path d="M30.4575 15.3204C30.8238 15.3204 31.19 15.5646 31.19 15.9918C31.19 16.3581 30.9458 16.7243 30.5186 16.7243C30.1524 16.7243 29.7861 16.4801 29.7861 16.0529C29.7861 15.6867 30.0913 15.3204 30.4575 15.3204Z" fill="#FADF4F"/>
<path d="M31.0684 18.4333C31.4346 18.4333 31.7398 18.6775 31.8008 19.0437C31.8008 19.41 31.5567 19.7151 31.1905 19.7762C30.8242 19.7762 30.519 19.532 30.458 19.1658C30.397 18.7996 30.7022 18.4944 31.0684 18.4333Z" fill="#FADF4F"/>
<path d="M69.9492 31.8007C70.3155 31.8007 70.6207 32.0448 70.6817 32.411C70.6817 32.7773 70.4375 33.0825 70.0713 33.1435C69.7051 33.1435 69.3999 32.8993 69.3389 32.5331C69.3389 32.1669 69.583 31.8007 69.9492 31.8007Z" fill="#FADF4F"/>
<path d="M75.8086 22.5229C76.1748 22.5229 76.48 22.7671 76.5411 23.1333C76.5411 23.4996 76.2969 23.8047 75.9307 23.8658C75.5645 23.8658 75.2593 23.6216 75.1982 23.2554C75.1372 22.8892 75.4424 22.584 75.8086 22.5229Z" fill="#FADF4F"/>
<path d="M79.2881 32.472C79.6543 32.472 79.9595 32.7162 80.0206 33.0824C80.0206 33.4486 79.7764 33.7538 79.4102 33.8149C79.044 33.8149 78.7388 33.5707 78.6777 33.2045C78.6777 32.8383 78.9219 32.472 79.2881 32.472Z" fill="#FADF4F"/>
<path d="M82.9502 30.0916C83.3164 30.0916 83.6216 30.3357 83.6827 30.7019C83.6827 31.0682 83.4385 31.3733 83.0723 31.4344C82.7061 31.4344 82.4009 31.1902 82.3398 30.824C82.2788 30.4578 82.584 30.1526 82.9502 30.0916Z" fill="#FADF4F"/>
<path d="M40.9561 27.8333C41.3223 27.8333 41.6275 28.0774 41.6885 28.4436C41.6885 28.8099 41.4444 29.115 41.0782 29.1761C40.7119 29.1761 40.4067 28.9319 40.3457 28.5657C40.3457 28.1995 40.5899 27.8333 40.9561 27.8333Z" fill="#FADF4F"/>
<path d="M51.6377 31.8617C52.0039 31.8617 52.3091 32.1058 52.3702 32.4721C52.3702 32.8383 52.126 33.1435 51.7598 33.2045C51.3936 33.2045 51.0884 32.9604 51.0273 32.5941C50.9663 32.2279 51.2105 31.8617 51.6377 31.8617Z" fill="#FADF4F"/>
<path d="M39.7964 46.3887C40.1626 46.3887 40.4678 46.6328 40.5289 46.999C40.5289 47.3653 40.2847 47.6705 39.9185 47.7315C39.5523 47.7315 39.2471 47.4873 39.186 47.1211C39.125 46.7549 39.4302 46.4497 39.7964 46.3887Z" fill="#FADF4F"/>
<path d="M66.6529 51.699C67.0191 51.699 67.3243 51.9431 67.3853 52.3094C67.3853 52.6756 67.1412 52.9808 66.7749 53.0418C66.4087 53.0418 66.1035 52.7977 66.0425 52.4314C66.0425 52.0042 66.2866 51.699 66.6529 51.699Z" fill="#FADF4F"/>
<path d="M60.9156 47.1213C61.2818 47.1213 61.587 47.3655 61.648 47.7317C61.648 48.0979 61.4039 48.4031 61.0376 48.4642C60.6714 48.4642 60.3662 48.22 60.3052 47.8538C60.2441 47.4876 60.5493 47.1824 60.9156 47.1213Z" fill="#FADF4F"/>
<path d="M60.1221 49.6847C60.4883 49.6847 60.7935 49.9288 60.8545 50.2951C60.8545 50.6613 60.6104 50.9665 60.2442 51.0275C59.8779 51.0275 59.5728 50.7834 59.5117 50.4171C59.4507 49.9899 59.7559 49.6847 60.1221 49.6847Z" fill="#FADF4F"/>
<path d="M56.7652 55.3002C57.1314 55.3002 57.4366 55.5443 57.4976 55.9105C57.4976 56.2768 57.2535 56.582 56.8872 56.643C56.521 56.643 56.2158 56.3989 56.1548 56.0326C56.0938 55.6054 56.3989 55.3002 56.7652 55.3002Z" fill="#FADF4F"/>
<path d="M38.6978 40.6511C39.064 40.6511 39.3692 40.8953 39.4302 41.2615C39.4302 41.6277 39.1861 41.9329 38.8199 41.994C38.4536 41.994 38.1484 41.7498 38.0874 41.3836C38.0874 41.0174 38.3316 40.7122 38.6978 40.6511Z" fill="#FADF4F"/>
<path d="M35.2188 51.2106C35.585 51.2106 35.8902 51.4547 35.9512 51.8209C35.9512 52.1872 35.7071 52.4924 35.3409 52.5534C34.9746 52.5534 34.6694 52.3092 34.6084 51.943C34.5474 51.5768 34.8526 51.2716 35.2188 51.2106Z" fill="#FADF4F"/>
<path d="M36.5005 43.764C36.8667 43.764 37.1719 44.0082 37.233 44.3744C37.233 44.7406 36.9888 45.0458 36.6226 45.1069C36.2564 45.1069 35.9512 44.8627 35.8901 44.4965C35.8291 44.1303 36.1343 43.8251 36.5005 43.764Z" fill="#FADF4F"/>
<path d="M32.7163 44.0692C33.0826 44.0692 33.3878 44.3134 33.4488 44.6796C33.4488 45.0458 33.2046 45.351 32.8384 45.412C32.4722 45.412 32.167 45.1679 32.106 44.8017C32.0449 44.4354 32.3501 44.1303 32.7163 44.0692Z" fill="#FADF4F"/>
<path d="M28.7486 51.1495C29.1148 51.1495 29.42 51.3937 29.481 51.7599C29.481 52.1261 29.2369 52.4313 28.8706 52.4924C28.5044 52.4924 28.1992 52.2482 28.1382 51.882C28.0771 51.5158 28.3823 51.1495 28.7486 51.1495Z" fill="#FADF4F"/>
<path d="M51.6377 30.2136C52.0039 30.2136 52.3091 30.4578 52.3702 30.824C52.3702 31.1902 52.126 31.4954 51.7598 31.5565C51.3936 31.5565 51.0884 31.3123 51.0273 30.9461C50.9663 30.5798 51.2715 30.2747 51.6377 30.2136Z" fill="#FADF4F"/>
<path d="M39.125 32.1669C39.4913 32.1669 39.7964 32.411 39.8575 32.7772C39.8575 33.1435 39.6133 33.4487 39.2471 33.5097C38.8809 33.5097 38.5757 33.2655 38.5147 32.8993C38.4536 32.5331 38.7588 32.2279 39.125 32.1669Z" fill="#FADF4F"/>
<path d="M23.6826 13.4283C24.0489 13.4283 24.3541 13.6725 24.4151 14.0387C24.4151 14.4049 24.1709 14.7101 23.8047 14.7712C23.4385 14.7712 23.1333 14.527 23.0723 14.1608C23.0112 13.7335 23.3164 13.4283 23.6826 13.4283Z" fill="#FADF4F"/>
<path d="M24.6592 12.0244C25.0254 12.0244 25.3306 12.2686 25.3917 12.6348C25.3917 13.001 25.1475 13.3062 24.7813 13.3672C24.4151 13.3672 24.1099 13.1231 24.0488 12.7569C23.9878 12.3906 24.293 12.0855 24.6592 12.0244Z" fill="#FADF4F"/>
<path d="M26.063 12.818C26.4292 12.818 26.7344 13.0621 26.7955 13.4284C26.7955 13.7946 26.5513 14.0998 26.1851 14.1608C25.8189 14.1608 25.5137 13.9167 25.4526 13.5504C25.3916 13.1232 25.6968 12.818 26.063 12.818Z" fill="#FADF4F"/>
<path d="M20.3867 5.37134C20.753 5.37134 21.0582 5.61549 21.1192 5.98171C21.1192 6.34794 20.875 6.65313 20.5088 6.71417C20.1426 6.71417 19.8374 6.47002 19.7764 6.10379C19.7153 5.67653 19.9595 5.37134 20.3867 5.37134Z" fill="#FADF4F"/>
<path d="M20.3867 7.01941C20.753 7.01941 21.0582 7.26356 21.1192 7.62979C21.1192 7.99601 20.875 8.3012 20.5088 8.36224C20.1426 8.36224 19.8374 8.11809 19.7764 7.75186C19.7153 7.3246 20.0205 7.01941 20.3867 7.01941Z" fill="#FADF4F"/>
<path d="M16.6631 20.4476C17.0293 20.4476 17.3345 20.6918 17.3956 21.058C17.3956 21.4242 17.1514 21.7294 16.7852 21.7905C16.419 21.7905 16.1138 21.5463 16.0527 21.1801C15.9917 20.8139 16.2359 20.5087 16.6631 20.4476Z" fill="#FADF4F"/>
<path d="M17.2124 18.8607C17.5787 18.8607 17.8838 19.1049 17.9449 19.4711C17.9449 19.8373 17.7007 20.1425 17.3345 20.2035C16.9683 20.2035 16.6631 19.9594 16.6021 19.5932C16.541 19.2269 16.8462 18.8607 17.2124 18.8607Z" fill="#FADF4F"/>
<path d="M61.6479 48.525C62.1973 48.4639 62.6856 48.8912 62.7466 49.4405C62.8077 49.9899 62.3804 50.4782 61.8311 50.5392C61.2817 50.6003 60.7934 50.173 60.7324 49.6237C60.6713 49.0133 61.0986 48.525 61.6479 48.525Z" fill="#FADF4F"/>
<path d="M46.5107 31.6175C46.5107 30.4578 47.4873 29.4812 48.6471 29.4812C49.8068 29.4812 50.7834 30.4578 50.7834 31.6175C50.7834 32.7772 49.8068 33.7538 48.6471 33.7538C47.4873 33.7538 46.5107 32.7772 46.5107 31.6175Z" fill="#FADF4F"/>
<path d="M56.582 32.7772C56.582 31.6175 57.5586 30.6409 58.7183 30.6409C59.8781 30.6409 60.8547 31.6175 60.8547 32.7772C60.8547 33.9369 59.8781 34.9135 58.7183 34.9135C57.5586 34.9135 56.582 33.9979 56.582 32.7772Z" fill="#FADF4F"/>
<path d="M48.8911 35.5239C48.8911 34.3642 49.8677 33.3876 51.0274 33.3876C52.1871 33.3876 53.1637 34.3642 53.1637 35.5239C53.1637 36.6836 52.1871 37.6602 51.0274 37.6602C49.8677 37.6602 48.8911 36.7446 48.8911 35.5239Z" fill="#FADF4F"/>
<path d="M80.2036 27.9553C80.2036 26.7956 81.1802 25.819 82.3399 25.819C83.4996 25.819 84.4762 26.7956 84.4762 27.9553C84.4762 29.115 83.4996 30.0916 82.3399 30.0916C81.1802 30.0916 80.2036 29.115 80.2036 27.9553Z" fill="#FADF4F"/>
<path d="M16.2358 3.96749C16.2358 2.86881 17.1514 1.95325 18.2501 1.95325C19.3488 1.95325 20.2643 2.86881 20.2643 3.96749C20.2643 5.06617 19.3488 5.98173 18.2501 5.98173C17.1514 5.98173 16.2358 5.06617 16.2358 3.96749Z" fill="#FADF4F"/>
<path d="M37.5991 44.1302C37.5991 43.0315 38.5147 42.116 39.6134 42.116C40.712 42.116 41.6276 43.0315 41.6276 44.1302C41.6276 45.2289 40.712 46.1444 39.6134 46.1444C38.5147 46.1444 37.5991 45.2289 37.5991 44.1302Z" fill="#FADF4F"/>
<path d="M34.9136 47.4873C34.9136 46.3886 35.8291 45.473 36.9278 45.473C38.0265 45.473 38.9421 46.3886 38.9421 47.4873C38.9421 48.5859 38.0265 49.5015 36.9278 49.5015C35.8291 49.5015 34.9136 48.5859 34.9136 47.4873Z" fill="#FADF4F"/>
<path d="M31.8008 18.1893C31.8008 17.1516 32.6553 16.2971 33.6929 16.2971C34.7306 16.2971 35.5851 17.1516 35.5851 18.1893C35.5851 19.2269 34.7306 20.0815 33.6929 20.0815C32.6553 20.1425 31.8008 19.288 31.8008 18.1893Z" fill="#FADF4F"/>
<path d="M29.6641 24.5982C29.6641 23.4995 30.5796 22.584 31.6783 22.584C32.777 22.584 33.6925 23.4995 33.6925 24.5982C33.6925 25.6969 32.777 26.6125 31.6783 26.6125C30.5796 26.6125 29.6641 25.6969 29.6641 24.5982Z" fill="#FADF4F"/>
<path d="M26.9175 13.9776C26.9175 13.001 27.711 12.2075 28.6876 12.2075C29.6642 12.2075 30.4577 13.001 30.4577 13.9776C30.4577 14.9542 29.6642 15.7477 28.6876 15.7477C27.711 15.7477 26.9175 14.9542 26.9175 13.9776Z" fill="#FADF4F"/>
<path d="M35.9512 19.1659C35.9512 18.0672 36.8667 17.1516 37.9654 17.1516C39.0641 17.1516 39.9797 18.0672 39.9797 19.1659C39.9797 20.2645 39.0641 21.1801 37.9654 21.1801C36.8667 21.1801 35.9512 20.2645 35.9512 19.1659Z" fill="#FADF4F"/>
<path d="M10.3152 31.3734C10.132 30.2747 10.8645 29.237 11.9632 29.0539C13.0618 28.8708 14.0995 29.6033 14.2826 30.7019C14.4657 31.8006 13.7333 32.8383 12.6346 33.0214C11.5359 33.2045 10.4983 32.472 10.3152 31.3734Z" fill="#FADF4F"/>
<path d="M8.66748 26.9787C8.66748 25.88 9.58304 24.9645 10.6817 24.9645C11.7804 24.9645 12.696 25.88 12.696 26.9787C12.696 28.0774 11.7804 28.993 10.6817 28.993C9.58304 28.993 8.66748 28.0774 8.66748 26.9787Z" fill="#FADF4F"/>
<path d="M5.67627 30.0306C5.67627 28.9319 6.59183 28.0164 7.69051 28.0164C8.78919 28.0164 9.70475 28.9319 9.70475 30.0306C9.70475 31.1293 8.78919 32.0448 7.69051 32.0448C6.59183 32.0448 5.67627 31.1293 5.67627 30.0306Z" fill="#FADF4F"/>
<path d="M13.4893 24.171C13.4893 22.9502 14.4659 21.9126 15.7476 21.9126C17.0294 21.9126 18.006 22.8892 18.006 24.171C18.006 25.3917 17.0294 26.4294 15.7476 26.4294C14.4659 26.4294 13.4893 25.3917 13.4893 24.171Z" fill="#FADF4F"/>
<path d="M4.3335 22.706C4.3335 21.7904 5.06595 21.058 5.98151 21.058C6.89708 21.058 7.62953 21.7904 7.62953 22.706C7.62953 23.6216 6.89708 24.354 5.98151 24.354C5.06595 24.354 4.3335 23.6216 4.3335 22.706Z" fill="#FADF4F"/>
<path d="M5.12695 26.2462C5.12695 25.3306 5.85941 24.5981 6.77497 24.5981C7.69053 24.5981 8.42299 25.3306 8.42299 26.2462C8.42299 27.1617 7.69053 27.8942 6.77497 27.8942C5.92044 27.8942 5.12695 27.1617 5.12695 26.2462Z" fill="#FADF4F"/>
<path d="M27.2837 19.7762C27.2837 18.9217 27.9551 18.2502 28.8096 18.2502C29.6642 18.2502 30.3356 18.9217 30.3356 19.7762C30.3356 20.6307 29.6642 21.3021 28.8096 21.3021C27.9551 21.3632 27.2837 20.6307 27.2837 19.7762Z" fill="#FADF4F"/>
<path d="M33.0825 21.8515C33.0825 20.8749 33.876 20.1425 34.7916 20.1425C35.7682 20.1425 36.5006 20.9359 36.5006 21.8515C36.5006 22.8281 35.7071 23.5606 34.7916 23.5606C33.815 23.6216 33.0825 22.8281 33.0825 21.8515Z" fill="#FADF4F"/>
<path d="M24.0488 15.8698C24.0488 15.0153 24.7813 14.2828 25.6358 14.2828C26.4903 14.2828 27.2228 15.0153 27.2228 15.8698C27.2228 16.7243 26.4903 17.4568 25.6358 17.4568C24.7202 17.4568 24.0488 16.7854 24.0488 15.8698Z" fill="#FADF4F"/>
<path d="M21.6074 28.1994C21.6074 27.3449 22.2788 26.6735 23.1334 26.6735C23.9879 26.6735 24.6593 27.3449 24.6593 28.1994C24.6593 29.0539 23.9879 29.7253 23.1334 29.7253C22.2788 29.7253 21.6074 29.0539 21.6074 28.1994Z" fill="#FADF4F"/>
<path d="M44.0693 6.95831C44.0693 6.10379 44.7407 5.43237 45.5953 5.43237C46.4498 5.43237 47.1212 6.10379 47.1212 6.95831C47.1212 7.81284 46.4498 8.48426 45.5953 8.48426C44.7407 8.48426 44.0693 7.81284 44.0693 6.95831Z" fill="#FADF4F"/>
<path d="M39.2471 6.89728C39.2471 6.04275 39.9185 5.37134 40.773 5.37134C41.6275 5.37134 42.299 6.04275 42.299 6.89728C42.299 7.75181 41.6275 8.42322 40.773 8.42322C39.9185 8.42322 39.2471 7.75181 39.2471 6.89728Z" fill="#FADF4F"/>
<path d="M28.9927 10.7426C28.9927 9.88809 29.6641 9.21667 30.5186 9.21667C31.3731 9.21667 32.0446 9.88809 32.0446 10.7426C32.0446 11.5971 31.3731 12.2686 30.5186 12.2686C29.6641 12.2686 28.9927 11.5971 28.9927 10.7426Z" fill="#FADF4F"/>
<path d="M40.2847 20.4477C40.2847 19.5932 40.9561 18.9218 41.8106 18.9218C42.6651 18.9218 43.3365 19.5932 43.3365 20.4477C43.3365 21.3022 42.6651 21.9736 41.8106 21.9736C40.9561 21.9736 40.2847 21.3022 40.2847 20.4477Z" fill="#FADF4F"/>
<path d="M34.9136 15.5646C34.9136 14.7101 35.585 14.0387 36.4395 14.0387C37.294 14.0387 37.9655 14.7101 37.9655 15.5646C37.9655 16.4192 37.294 17.0906 36.4395 17.0906C35.585 17.0906 34.9136 16.4192 34.9136 15.5646Z" fill="#FADF4F"/>
<path d="M34.7915 12.2076C34.7915 11.3531 35.4629 10.6816 36.3174 10.6816C37.172 10.6816 37.8434 11.3531 37.8434 12.2076C37.8434 13.0621 37.172 13.7335 36.3174 13.7335C35.4629 13.7335 34.7915 13.0621 34.7915 12.2076Z" fill="#FADF4F"/>
<path d="M31.5566 8.36224C31.5566 7.50772 32.2281 6.8363 33.0826 6.8363C33.9371 6.8363 34.6085 7.50772 34.6085 8.36224C34.6085 9.21677 33.9371 9.88819 33.0826 9.88819C32.2281 9.88819 31.5566 9.21677 31.5566 8.36224Z" fill="#FADF4F"/>
<path d="M49.0132 13.6114C49.0132 12.7569 49.6846 12.0854 50.5391 12.0854C51.3937 12.0854 52.0651 12.7569 52.0651 13.6114C52.0651 14.4659 51.3937 15.1373 50.5391 15.1373C49.6846 15.1373 49.0132 14.4049 49.0132 13.6114Z" fill="#FADF4F"/>
<path d="M59.3896 14.1607C59.3896 13.3062 60.0611 12.6348 60.9156 12.6348C61.7701 12.6348 62.4415 13.3062 62.4415 14.1607C62.4415 15.0152 61.7701 15.6866 60.9156 15.6866C60.0611 15.6866 59.3896 15.0152 59.3896 14.1607Z" fill="#FADF4F"/>
<path d="M61.709 20.2036C61.709 19.349 62.3804 18.6776 63.2349 18.6776C64.0895 18.6776 64.7609 19.349 64.7609 20.2036C64.7609 21.0581 64.0895 21.7295 63.2349 21.7295C62.3804 21.7295 61.709 21.0581 61.709 20.2036Z" fill="#FADF4F"/>
<path d="M61.2817 16.9074C61.2817 16.0529 61.9532 15.3815 62.8077 15.3815C63.6622 15.3815 64.3336 16.0529 64.3336 16.9074C64.3336 17.7619 63.6622 18.4334 62.8077 18.4334C61.9532 18.4334 61.2817 17.7619 61.2817 16.9074Z" fill="#FADF4F"/>
<path d="M17.9448 15.3205C17.9448 14.3439 18.7383 13.5504 19.7149 13.5504C20.6915 13.5504 21.485 14.3439 21.485 15.3205C21.485 16.2971 20.6915 17.0906 19.7149 17.0906C18.6773 17.0906 17.9448 16.2971 17.9448 15.3205Z" fill="#FADF4F"/>
<path d="M26.4294 24.9034C26.6125 24.0489 27.406 23.5606 28.2605 23.7437C29.115 23.9268 29.6033 24.7203 29.4202 25.5748C29.2371 26.4294 28.4436 26.9177 27.5891 26.7346C26.7346 26.5514 26.2463 25.6969 26.4294 24.9034Z" fill="#FADF4F"/>
<path d="M39.6745 30.5799C39.8576 29.7254 40.6511 29.2371 41.5056 29.4202C42.3602 29.6033 42.8485 30.3968 42.6654 31.2514C42.4822 32.1059 41.6888 32.5942 40.8342 32.4111C40.0407 32.228 39.4914 31.3734 39.6745 30.5799Z" fill="#FADF4F"/>
<path d="M43.337 30.3358C43.5201 29.6033 44.2525 29.115 44.985 29.2981C45.7174 29.4813 46.2057 30.2137 46.0226 30.9462C45.8395 31.6786 45.107 32.1669 44.3746 31.9838C43.6421 31.8617 43.1538 31.0682 43.337 30.3358Z" fill="#FADF4F"/>
<path d="M52.7366 31.6175C52.9197 30.6409 53.8963 30.0916 54.8119 30.2747C55.7885 30.4578 56.3378 31.4344 56.1547 32.35C55.9716 33.3266 54.995 33.8759 54.0794 33.6928C53.1638 33.5097 52.5535 32.5941 52.7366 31.6175Z" fill="#FADF4F"/>
<path d="M49.9896 27.9553C50.1727 27.0397 51.0883 26.4904 52.0038 26.6735C52.9194 26.8566 53.4687 27.7722 53.2856 28.6878C53.1025 29.6033 52.1869 30.1527 51.2714 29.9695C50.3558 29.7254 49.7454 28.8098 49.9896 27.9553Z" fill="#FADF4F"/>
<path d="M70.0101 34.3642C70.1932 33.4487 71.1088 32.8993 72.0243 33.0824C72.9399 33.2656 73.4892 34.1811 73.3061 35.0967C73.123 36.0123 72.2075 36.5616 71.2919 36.3785C70.3763 36.1954 69.7659 35.2798 70.0101 34.3642Z" fill="#FADF4F"/>
<path d="M73.4282 35.4629C73.6113 34.5473 74.5268 33.998 75.4424 34.1811C76.358 34.3642 76.9073 35.2798 76.7242 36.1953C76.5411 37.1109 75.6255 37.6602 74.7099 37.4771C73.7944 37.233 73.245 36.3174 73.4282 35.4629Z" fill="#FADF4F"/>
<path d="M71.5971 38.3316C71.7802 37.4161 72.6958 36.8667 73.6113 37.0499C74.5269 37.233 75.0762 38.1485 74.8931 39.0641C74.71 39.9797 73.7945 40.529 72.8789 40.3459C71.9633 40.1017 71.414 39.1862 71.5971 38.3316Z" fill="#FADF4F"/>
<path d="M68.4843 40.3459C68.6674 39.4304 69.5829 38.881 70.4985 39.0641C71.4141 39.2473 71.9634 40.1628 71.7803 41.0784C71.5972 41.9939 70.6816 42.5433 69.766 42.3602C68.9115 42.116 68.3011 41.2005 68.4843 40.3459Z" fill="#FADF4F"/>
<path d="M66.7143 29.7253C66.8974 28.8098 67.813 28.2604 68.7285 28.4435C69.6441 28.6266 70.1934 29.5422 70.0103 30.4578C69.8272 31.3733 68.9116 31.9227 67.9961 31.7396C67.0805 31.5565 66.5312 30.6409 66.7143 29.7253Z" fill="#FADF4F"/>
<path d="M56.7039 38.0876C56.887 37.111 57.8636 36.5006 58.8402 36.7448C59.8168 36.9279 60.4272 37.9045 60.183 38.8811C59.9999 39.8577 59.0233 40.4681 58.0467 40.2239C57.0701 39.9798 56.5208 39.0642 56.7039 38.0876Z" fill="#FADF4F"/>
<path d="M53.7133 27.8332C53.9575 26.7956 54.9951 26.1242 56.0327 26.3683C57.0704 26.6125 57.7418 27.6501 57.4976 28.6878C57.2535 29.7254 56.2158 30.3968 55.1782 30.1527C54.1406 29.9085 53.4692 28.8709 53.7133 27.8332Z" fill="#FADF4F"/>
<path d="M67.4467 26.1852C67.6298 25.2696 68.5453 24.7203 69.4609 24.9034C70.3765 25.0865 70.9258 26.002 70.7427 26.9176C70.5596 27.8332 69.644 28.3825 68.7284 28.1994C67.8739 27.9553 67.2635 27.1007 67.4467 26.1852Z" fill="#FADF4F"/>
<path d="M47.9755 16.8464C48.1586 15.9309 49.0742 15.3815 49.9898 15.5646C50.9053 15.7477 51.4547 16.6633 51.2715 17.5789C51.0884 18.4944 50.1729 19.0438 49.2573 18.8607C48.3417 18.6165 47.7924 17.762 47.9755 16.8464Z" fill="#FADF4F"/>
<path d="M35.4629 39.5524C35.4629 38.6979 36.1343 38.0265 36.9888 38.0265C37.8434 38.0265 38.5148 38.6979 38.5148 39.5524C38.5148 40.407 37.8434 41.0784 36.9888 41.0784C36.1343 41.0784 35.4629 40.407 35.4629 39.5524Z" fill="#FADF4F"/>
<path d="M32.3501 49.7457C32.3501 48.8911 33.0215 48.2197 33.876 48.2197C34.7306 48.2197 35.402 48.8911 35.402 49.7457C35.402 50.6002 34.7306 51.2716 33.876 51.2716C33.0215 51.3326 32.3501 50.6002 32.3501 49.7457Z" fill="#FADF4F"/>
<path d="M29.603 51.6989C29.603 50.8444 30.2744 50.173 31.129 50.173C31.9835 50.173 32.6549 50.8444 32.6549 51.6989C32.6549 52.5534 31.9835 53.2249 31.129 53.2249C30.3355 53.2249 29.603 52.5534 29.603 51.6989Z" fill="#FADF4F"/>
<path d="M9.03369 8.36224C9.03369 7.50772 9.7051 6.8363 10.5596 6.8363C11.4142 6.8363 12.0856 7.50772 12.0856 8.36224C12.0856 9.21677 11.4142 9.88819 10.5596 9.88819C9.7051 9.88819 9.03369 9.15573 9.03369 8.36224Z" fill="#FADF4F"/>
<path d="M52.0649 49.1353C52.0649 48.2808 52.7364 47.6094 53.5909 47.6094C54.4454 47.6094 55.1168 48.2808 55.1168 49.1353C55.1168 49.9898 54.4454 50.6613 53.5909 50.6613C52.7974 50.7223 52.0649 49.9898 52.0649 49.1353Z" fill="#FADF4F"/>
<path d="M62.9907 49.9898C62.9907 49.1353 63.6621 48.4639 64.5167 48.4639C65.3712 48.4639 66.0426 49.1353 66.0426 49.9898C66.0426 50.8443 65.3712 51.5157 64.5167 51.5157C63.6621 51.5157 62.9907 50.8443 62.9907 49.9898Z" fill="#FADF4F"/>
<path d="M55.6055 58.4741C55.6055 57.6195 56.2769 56.9481 57.1314 56.9481C57.9859 56.9481 58.6574 57.6195 58.6574 58.4741C58.6574 59.3286 57.9859 60 57.1314 60C56.2769 60 55.6055 59.2676 55.6055 58.4741Z" fill="#FADF4F"/>
<path d="M60.5493 52.4924C60.5493 51.6378 61.2207 50.9664 62.0753 50.9664C62.9298 50.9664 63.6012 51.6378 63.6012 52.4924C63.6012 53.3469 62.9298 54.0183 62.0753 54.0183C61.2207 54.0183 60.5493 53.3469 60.5493 52.4924Z" fill="#FADF4F"/>
<path d="M54.5068 51.3937C54.5068 50.5392 55.1782 49.8678 56.0328 49.8678C56.8873 49.8678 57.5587 50.5392 57.5587 51.3937C57.5587 52.2483 56.8873 52.9197 56.0328 52.9197C55.1782 52.9197 54.5068 52.2483 54.5068 51.3937Z" fill="#FADF4F"/>
<path d="M57.7417 52.1872C57.7417 51.4547 58.291 50.9054 59.0235 50.9054C59.7559 50.9054 60.3053 51.4547 60.3053 52.1872C60.3053 52.9196 59.7559 53.469 59.0235 53.469C58.3521 53.469 57.7417 52.9196 57.7417 52.1872Z" fill="#FADF4F"/>
<path d="M97.6602 55.7884H97.355C97.2329 55.7884 97.1108 55.6663 97.1108 55.5443V2.68568C97.1108 2.5636 97.2329 2.44153 97.355 2.44153H97.6602C97.7822 2.44153 97.9043 2.5636 97.9043 2.68568V55.5443C97.9043 55.6663 97.7822 55.7884 97.6602 55.7884Z" fill="#FADF4F"/>
<path d="M109.074 18.1282H114.568V19.5931H109.074C109.318 21.4853 110.722 22.7061 112.614 22.7061C113.713 22.7061 114.629 22.3398 115.239 21.6684L116.338 22.7671C115.422 23.7437 114.079 24.293 112.492 24.293C109.318 24.293 107.182 22.0957 107.182 18.9217C107.182 15.6867 109.318 13.5504 112.492 13.5504C114.079 13.5504 115.422 14.0998 116.338 15.0764L115.239 16.175C114.629 15.5036 113.713 15.1374 112.614 15.1374C110.722 15.0764 109.379 16.2971 109.074 18.1282Z" fill="#FADF4F"/>
<path d="M120.305 21.119C120.305 21.9736 120.122 22.4619 119.756 22.8891H122.197V18.7386H120.305V21.119ZM124.883 26.2462H123.296V24.1709H118.84V26.2462H117.253V22.8281C117.986 22.8281 118.596 22.2177 118.596 21.2411V17.3347H123.784V22.7671H124.761V26.2462H124.883Z" fill="#FADF4F"/>
<path d="M127.813 20.0814H130.559V17.3958H132.268V24.1709H130.559V21.4242H127.813V24.1709H126.104V17.3958H127.813V20.0814Z" fill="#FADF4F"/>
<path d="M137.274 22.4008V21.3022C137.274 21.3022 137.029 21.1801 136.541 21.1801C135.748 21.1801 135.32 21.4853 135.32 22.0957C135.32 22.5229 135.565 22.9502 136.175 22.9502C136.48 22.8891 136.968 22.7671 137.274 22.4008ZM139.593 24.1709C139.471 24.232 139.166 24.232 138.983 24.232C138.25 24.232 137.762 23.9268 137.518 23.4385C137.029 23.9268 136.358 24.293 135.626 24.293C134.344 24.293 133.672 23.3774 133.672 22.2788C133.672 20.8139 134.893 20.0814 136.48 20.0814C137.029 20.0814 137.335 20.1425 137.335 20.1425V19.5931C137.335 19.1048 137.029 18.6165 136.114 18.6165C135.626 18.6165 135.076 18.7386 134.71 19.1048L133.855 18.2503C134.527 17.5789 135.259 17.2737 136.297 17.2737C138.067 17.2737 139.044 18.2503 139.044 19.6542V22.584C139.044 22.8891 139.288 23.1333 139.654 23.1333V24.1709H139.593Z" fill="#FADF4F"/>
<path d="M142.584 20.0814H145.331V17.3958H147.04V24.1709H145.331V21.4242H142.584V24.1709H140.875V17.3958H142.584V20.0814Z" fill="#FADF4F"/>
<path d="M150.397 20.0814H153.143V17.3958H154.852V24.1709H153.143V21.4242H150.397V24.1709H148.749V17.3958H150.397V20.0814Z" fill="#FADF4F"/>
<path d="M160.224 20.3256V18.6165H158.942C158.515 18.6165 158.149 18.9827 158.149 19.471C158.149 19.9593 158.515 20.3256 158.942 20.3256H160.224ZM161.933 24.1709H160.224V21.6073H159.369L157.965 24.1709H156.256L157.843 21.4853C156.867 21.1801 156.378 20.4476 156.378 19.5321C156.378 18.3113 157.233 17.4568 158.82 17.4568H161.872V24.1709H161.933Z" fill="#FADF4F"/>
<path d="M111.699 33.9979C111.699 34.6083 111.394 35.1577 110.844 35.5239C111.638 35.8291 112.004 36.5005 112.004 37.2329C112.004 38.3927 111.15 39.1861 109.318 39.1861C108.098 39.1861 107.487 38.8199 106.816 38.1485L107.731 37.2329C108.098 37.6602 108.647 37.8433 109.196 37.8433C109.99 37.8433 110.295 37.4771 110.295 36.9888C110.295 36.5005 109.99 36.2563 109.502 36.2563H108.281V35.0966H109.196C109.685 35.0966 109.99 34.7304 109.99 34.4252C109.99 34.12 109.746 33.6317 109.013 33.6317C108.647 33.6317 108.098 33.7538 107.731 34.1811L106.816 33.2655C107.487 32.5941 108.159 32.2278 109.196 32.2278C110.783 32.1058 111.699 32.8993 111.699 33.9979Z" fill="#FADF4F"/>
<path d="M116.765 37.294V36.1954C116.765 36.1954 116.521 36.0733 116.033 36.0733C115.239 36.0733 114.812 36.3785 114.812 36.9888C114.812 37.4161 115.056 37.8434 115.667 37.8434C115.972 37.7823 116.46 37.6603 116.765 37.294ZM119.024 39.0641C118.902 39.1252 118.596 39.1252 118.413 39.1252C117.681 39.1252 117.193 38.82 116.948 38.3317C116.46 38.82 115.789 39.1862 115.056 39.1862C113.774 39.1862 113.103 38.2706 113.103 37.172C113.103 35.7071 114.324 34.9746 115.911 34.9746C116.46 34.9746 116.765 35.0356 116.765 35.0356V34.4863C116.765 33.998 116.46 33.5097 115.545 33.5097C115.056 33.5097 114.507 33.6318 114.141 33.998L113.286 33.1435C113.958 32.4721 114.69 32.1669 115.728 32.1669C117.498 32.1669 118.474 33.1435 118.474 34.5473V37.4771C118.474 37.7823 118.718 38.0265 119.085 38.0265V39.0641H119.024Z" fill="#FADF4F"/>
<path d="M123.418 33.6318C122.869 33.6318 122.38 33.8149 122.075 34.1811V37.172C122.38 37.4771 122.869 37.6603 123.418 37.6603C124.517 37.6603 125.31 36.8668 125.31 35.646C125.31 34.4253 124.517 33.6318 123.418 33.6318ZM122.075 32.2889V32.7772C122.564 32.411 123.174 32.1669 123.906 32.1669C125.799 32.1669 127.08 33.5707 127.08 35.7071C127.08 37.7823 125.676 39.2472 123.662 39.2472C123.113 39.2472 122.564 39.1252 122.136 38.942V42.9095H120.427V32.2889H122.075Z" fill="#FADF4F"/>
<path d="M131.78 37.294V36.1954C131.78 36.1954 131.536 36.0733 131.048 36.0733C130.254 36.0733 129.827 36.3785 129.827 36.9888C129.827 37.4161 130.071 37.8434 130.682 37.8434C131.048 37.7823 131.475 37.6603 131.78 37.294ZM134.1 39.0641C133.978 39.1252 133.673 39.1252 133.489 39.1252C132.757 39.1252 132.269 38.82 132.025 38.3317C131.536 38.82 130.865 39.1862 130.132 39.1862C128.851 39.1862 128.179 38.2706 128.179 37.172C128.179 35.7071 129.4 34.9746 130.987 34.9746C131.536 34.9746 131.841 35.0356 131.841 35.0356V34.4863C131.841 33.998 131.536 33.5097 130.621 33.5097C130.132 33.5097 129.583 33.6318 129.217 33.998L128.362 33.1435C129.034 32.4721 129.766 32.1669 130.804 32.1669C132.574 32.1669 133.551 33.1435 133.551 34.5473V37.4771C133.551 37.7823 133.795 38.0265 134.161 38.0265V39.0641H134.1Z" fill="#FADF4F"/>
<path d="M137.884 35.9512C137.884 36.8057 137.701 37.294 137.335 37.7213H139.776V33.5707H137.884V35.9512ZM142.462 41.1394H140.875V39.0641H136.419V41.1394H134.893V37.7213C135.626 37.7213 136.236 37.1109 136.236 36.1343V32.2279H141.424V37.6603H142.401V41.1394H142.462Z" fill="#FADF4F"/>
<path d="M145.392 36.3174L148.566 32.2889H149.908V39.0031H148.199V34.9746L145.025 39.0031H143.744V32.2889H145.392V36.3174Z" fill="#FADF4F"/>
<path d="M157.538 35.9512C157.538 36.8057 157.355 37.294 156.989 37.7213H159.43V33.5707H157.538V35.9512ZM162.116 41.1394H160.529V39.0641H156.073V41.1394H154.486V37.7213C155.219 37.7213 155.829 37.1109 155.829 36.1343V32.2279H161.017V37.6603H161.994V41.1394H162.116Z" fill="#FADF4F"/>
<path d="M168.891 29.6033C169.441 29.6033 169.868 30.0305 169.868 30.5799C169.868 31.1292 169.441 31.4955 168.891 31.4955C168.342 31.4955 167.915 31.0682 167.915 30.5799C167.915 30.0305 168.342 29.6033 168.891 29.6033ZM166.755 32.2889H168.464V39.0641H166.755V32.2889ZM166.572 29.6033C167.121 29.6033 167.549 30.0305 167.549 30.5799C167.549 31.1292 167.121 31.4955 166.572 31.4955C166.023 31.4955 165.656 31.0682 165.656 30.5799C165.656 30.0305 166.084 29.6033 166.572 29.6033ZM163.398 32.2889H165.107V39.0641H163.398V32.2889ZM164.191 29.2371C164.741 29.2371 165.168 29.6643 165.168 30.2137C165.168 30.763 164.741 31.1903 164.191 31.1903C163.642 31.1903 163.215 30.763 163.215 30.2137C163.215 29.6643 163.642 29.2371 164.191 29.2371Z" fill="#FADF4F"/>
</g>
<defs>
<clipPath id="clip0_1342_87">
<rect width="169.807" height="60" fill="white"/>
</clipPath>
</defs>
</svg>