<svg width="12" height="20" viewBox="0 0 12 20" fill="none" xmlns="http://www.w3.org/2000/svg">
<path d="M8.01148 10.1808C7.89097 9.09613 8.73458 8.132 9.81922 8.01149C10.9039 7.89097 11.868 8.73458 11.9885 9.81923C12.109 10.9039 11.2654 11.868 10.1808 11.9885C8.97561 12.109 8.01148 11.2654 8.01148 10.1808Z" fill="#2E308C"/>
<path d="M4.01148 14.1808C3.89097 13.0961 4.73458 12.132 5.81922 12.0115C6.90387 11.891 7.868 12.7346 7.98852 13.8192C8.10903 14.9039 7.26542 15.868 6.18078 15.9885C4.97561 16.109 4.01148 15.2654 4.01148 14.1808Z" fill="#2E308C"/>
<path d="M0.0114814 18.1808C-0.109035 17.0961 0.734578 16.132 1.81922 16.0115C2.90387 15.891 3.868 16.7346 3.98852 17.8192C4.10903 18.9039 3.26542 19.868 2.18078 19.9885C0.975614 20.109 0.0114814 19.2654 0.0114814 18.1808Z" fill="#2E308C"/>
<path d="M4.01148 6.18078C3.89097 5.09613 4.73458 4.132 5.81922 4.01149C6.90387 3.89097 7.868 4.73458 7.98852 5.81923C8.10903 6.90388 7.26542 7.86801 6.18078 7.98852C4.97561 8.10904 4.01148 7.26542 4.01148 6.18078Z" fill="#2E308C"/>
<path d="M0.0114814 2.18078C-0.109035 1.09613 0.734578 0.132002 1.81922 0.011485C2.90387 -0.109031 3.868 0.734584 3.98852 1.81923C4.10903 2.90388 3.26542 3.86801 2.18078 3.98852C0.975614 4.10904 0.0114814 3.26542 0.0114814 2.18078Z" fill="#2E308C"/>
</svg>