<svg width="12" height="20" viewBox="0 0 12 20" fill="none" xmlns="http://www.w3.org/2000/svg">
<path d="M3.98852 10.1808C4.10903 9.09613 3.26542 8.132 2.18078 8.01149C1.09613 7.89097 0.131997 8.73458 0.0114814 9.81923C-0.109035 10.9039 0.734578 11.868 1.81922 11.9885C3.02439 12.109 3.98852 11.2654 3.98852 10.1808Z" fill="#2E308C"/>
<path d="M7.98852 14.1808C8.10903 13.0961 7.26542 12.132 6.18078 12.0115C5.09613 11.891 4.132 12.7346 4.01148 13.8192C3.89097 14.9039 4.73458 15.868 5.81922 15.9885C7.02439 16.109 7.98852 15.2654 7.98852 14.1808Z" fill="#2E308C"/>
<path d="M11.9885 18.1808C12.109 17.0961 11.2654 16.132 10.1808 16.0115C9.09613 15.891 8.132 16.7346 8.01148 17.8192C7.89097 18.9039 8.73458 19.868 9.81922 19.9885C11.0244 20.109 11.9885 19.2654 11.9885 18.1808Z" fill="#2E308C"/>
<path d="M7.98852 6.18078C8.10903 5.09613 7.26542 4.132 6.18078 4.01149C5.09613 3.89097 4.132 4.73458 4.01148 5.81923C3.89097 6.90388 4.73458 7.86801 5.81922 7.98852C7.02439 8.10904 7.98852 7.26542 7.98852 6.18078Z" fill="#2E308C"/>
<path d="M11.9885 2.18078C12.109 1.09613 11.2654 0.132002 10.1808 0.011485C9.09613 -0.109031 8.132 0.734584 8.01148 1.81923C7.89097 2.90388 8.73458 3.86801 9.81922 3.98852C11.0244 4.10904 11.9885 3.26542 11.9885 2.18078Z" fill="#2E308C"/>
</svg>