<svg width="17" height="17" viewBox="0 0 17 17" fill="none" xmlns="http://www.w3.org/2000/svg">
<path d="M15.3531 17L11.0294 12.6754C9.60229 13.6899 7.84606 14.1313 6.1088 13.9121C4.37154 13.6929 2.78005 12.829 1.64974 11.4918C0.519436 10.1545 -0.0671899 8.4414 0.00612935 6.69202C0.0794486 4.94264 0.807362 3.28464 2.0456 2.04663C3.28351 0.808078 4.94162 0.0798105 6.69125 0.0061808C8.44088 -0.0674489 10.1543 0.518935 11.4919 1.6491C12.8295 2.77926 13.6937 4.37071 13.913 6.10797C14.1324 7.84524 13.691 9.60151 12.6763 11.0287L17 15.3533L15.3543 16.9988L15.3531 17ZM6.98268 2.32826C5.91201 2.32801 4.87397 2.6968 4.04346 3.37248C3.21295 4.04816 2.64074 4.98944 2.42325 6.03773C2.20575 7.08601 2.35625 8.17722 2.8494 9.12749C3.34255 10.0778 4.1482 10.829 5.13061 11.2547C6.11302 11.6804 7.21214 11.7544 8.24278 11.4644C9.27343 11.1744 10.1726 10.538 10.7888 9.66245C11.405 8.78691 11.7005 7.72576 11.6256 6.65778C11.5507 5.5898 11.11 4.58026 10.3777 3.79928L11.0818 4.49754L10.288 3.70617L10.2741 3.69221C9.84295 3.25846 9.33005 2.91456 8.76507 2.68044C8.20008 2.44631 7.59426 2.32661 6.98268 2.32826Z" fill="white"/>
</svg>