<svg width="1920" height="661" viewBox="0 0 1920 661" fill="none" xmlns="http://www.w3.org/2000/svg">
<rect width="1920" height="661" fill="#6969B9"/>
<path fill-rule="evenodd" clip-rule="evenodd" d="M2613.75 656.473C2595.39 651.505 2577.16 666.347 2578.33 685.315C2579.78 708.817 2608.04 719.982 2625.48 703.947C2641.32 689.391 2634.57 662.106 2613.75 656.473ZM2551.48 633.484C2522.88 625.467 2502.88 660.786 2524.5 681.123C2532.97 689.087 2554.27 690.933 2558.66 684.084C2558.84 683.803 2559.67 683.136 2560.52 682.602C2578.33 671.276 2572.46 639.367 2551.48 633.484ZM2471.14 588.866C2457.15 583.678 2441.66 584.204 2428.3 590.321C2423.98 592.303 2414.71 598.289 2413.93 599.608C2413.71 599.983 2412.52 601.122 2411.28 602.14C2398.99 612.296 2392.62 637.042 2397.46 655.83C2400.18 666.414 2403.85 672.76 2412.53 681.914C2425.5 695.592 2448.78 700.979 2468.5 694.866C2472.93 693.493 2483.62 688.251 2484.26 687.139C2484.36 686.975 2485.18 686.283 2486.1 685.601C2520.4 660.065 2511.72 603.92 2471.14 588.866ZM2357.96 550.159C2332.57 538.686 2297.68 553.128 2286.29 579.826C2267.55 623.718 2306.94 669.276 2352.57 656.481C2362.69 653.643 2370.58 649.011 2377.97 641.574C2382.81 636.699 2389.91 624.359 2391.54 617.98C2392.65 613.632 2394.05 604.106 2393.71 603.171C2393.63 602.929 2393.56 601.161 2393.57 599.243C2393.62 579.92 2378.89 559.618 2357.96 550.159ZM1701.21 191.468C1693.08 189.231 1689.69 188.605 1684.79 188.435C1633.89 186.671 1607.43 245.152 1641.8 283.474C1645.79 287.928 1660.88 297.204 1666.29 298.531C1669.74 299.377 1676.89 300.55 1678.73 300.572C1679.5 300.581 1680.74 300.607 1681.49 300.63C1719.72 301.803 1749.8 259.45 1734.97 225.334C1734.09 223.316 1733.29 221.265 1733.19 220.779C1731.35 212.1 1712.11 194.47 1701.21 191.468ZM2572.38 706.341C2517.5 684.043 2459.24 742.989 2482.51 797.27C2483.33 799.18 2484.02 800.973 2484.05 801.255C2484.2 802.683 2489.55 811.359 2492.89 815.583C2502.91 828.25 2521.91 839.322 2536.39 840.931C2554.35 842.925 2569.6 840.152 2582.36 832.571C2600.76 821.645 2614.6 801.517 2616.8 782.465C2620.8 747.929 2604.03 719.203 2572.38 706.341ZM1576.7 147.557C1549.5 137.609 1517.78 145.269 1500.39 165.985C1499.3 167.279 1497.35 169.609 1496.05 171.163C1490.75 177.503 1485.12 190.227 1483.5 199.541C1483.08 201.984 1482.61 204.507 1482.47 205.145C1482.33 205.783 1482.2 207.594 1482.18 209.167C1482.16 210.742 1482.13 212.961 1482.11 214.1C1481.96 221.158 1484.24 232.217 1487.32 239.336C1488.24 241.468 1489.02 243.428 1489.06 243.692C1489.1 243.956 1490.52 246.406 1492.21 249.137C1515.14 286.216 1565.4 294.207 1597.9 265.94C1612.68 253.088 1622.48 232.053 1622.07 214.054C1622.03 212.199 1622.07 210.561 1622.15 210.412C1622.45 209.901 1620.99 199.982 1620.04 196.056C1614.73 174.036 1598.04 155.358 1576.7 147.557ZM2257.96 548.502C2247.28 544.441 2232.99 548.986 2226.29 558.574C2208.58 583.906 2237.58 614.931 2263.78 598.7C2283.57 586.446 2280.15 556.938 2257.96 548.502ZM2194.5 524.11C2185.11 521.443 2173.32 524.313 2167.63 530.647C2162.94 535.872 2162.23 536.931 2160.78 540.813C2151.04 566.978 2180.33 589.721 2203.31 573.829C2207.97 570.6 2214.27 560.751 2214.49 556.337C2214.55 555.065 2214.76 553.752 2214.95 553.418C2219.3 545.885 2206.48 527.517 2194.5 524.11ZM1759.42 275.001C1732.56 271.255 1716.14 301.77 1734.31 321.689C1755.89 345.348 1793.91 318.91 1779.84 290.036C1776.28 282.731 1767.26 276.094 1759.42 275.001ZM1465.56 141.624C1444.38 134.067 1423.27 153.484 1429.21 175.054C1437.95 206.826 1484.5 200.395 1484.19 167.459C1484.1 158.279 1476.83 146.018 1469.78 143.153C1469.53 143.051 1467.63 142.362 1465.56 141.624ZM2423.03 697.598C2418.28 695.739 2412.95 694.269 2410.54 694.157C2409.35 694.102 2408.11 693.903 2407.79 693.715C2398.56 688.386 2366.36 697.94 2352.1 710.238C2340.01 720.661 2326.94 745.507 2328.77 754.575C2328.86 754.988 2328.73 755.666 2328.49 756.082C2328.25 756.498 2328.09 759.567 2328.15 762.903C2329.15 828.309 2408.43 857.507 2451.42 808.307C2470.32 786.68 2473.46 749.764 2458.31 727.264C2457.79 726.491 2457.13 725.448 2456.85 724.947C2456.31 724.005 2454.74 721.845 2451.98 718.245C2446.91 711.62 2432.38 701.258 2423.03 697.598ZM2261.84 611.107C2239.99 606.656 2221.67 629.749 2230.93 650.077C2243.94 678.625 2286.67 667.709 2284.37 636.427C2283.45 623.968 2274.26 613.637 2261.84 611.107ZM1707.65 305.581C1695.62 303.41 1684.56 313.989 1685.85 326.43C1687 337.546 1699.03 345.499 1709.94 342.352C1728.93 336.872 1727.2 309.108 1707.65 305.581ZM2056.66 506.935C2043.85 504.779 2033.89 509.524 2027.38 520.879L2023.61 527.438L2023.38 532.542C2022.12 560.179 2055.6 573.212 2073.24 551.952C2086.2 536.324 2076.61 510.297 2056.66 506.935ZM2202.16 590.105C2195.46 587.775 2192 586.711 2191 586.681C2190.36 586.662 2188.34 586.506 2186.52 586.334C2154.86 583.348 2131.08 619.122 2145.71 647.725C2166.19 687.777 2225.89 673.578 2226.5 628.508C2226.7 613.343 2214.75 594.493 2202.16 590.105ZM1773.87 346.94C1766.11 344.056 1752.82 342.23 1749.28 343.561C1749.03 343.653 1748.01 343.79 1747 343.867C1722.11 345.752 1700.23 369.471 1698.58 396.356C1695.73 442.904 1747.83 471.936 1786.63 445.415C1802.41 434.623 1813.29 410.865 1810.26 393.78C1810.11 392.924 1809.71 390.542 1809.38 388.486C1809.05 386.43 1808.17 383.156 1807.43 381.209C1806.69 379.263 1805.89 377.179 1805.66 376.578C1804.16 372.626 1800.08 366.42 1795.62 361.304C1791.09 356.102 1781.52 349.784 1773.87 346.94ZM2315.79 661.917C2279.94 648.154 2246.86 691 2270.05 721.174C2274.53 727.003 2275.5 727.909 2281.02 731.417C2314.73 752.843 2355.64 714.353 2336.16 679.533C2332.63 673.224 2330.38 670.859 2322.37 665.035C2321.42 664.346 2318.46 662.943 2315.79 661.917ZM1616.31 265.5C1603.15 263.418 1591.52 276.112 1595.01 288.754C1601.42 311.986 1635.1 304.864 1632.01 280.929C1631.07 273.592 1624.09 266.729 1616.31 265.5ZM1654.73 299.199C1635.96 294.147 1618.36 307.644 1618.82 326.737C1619.5 354.861 1656.85 364.492 1670.9 340.162C1680.01 324.383 1671.89 303.818 1654.73 299.199ZM2095.29 570.977C2042.72 552.153 1998.31 614.686 2032.82 658.943C2043.89 673.141 2070.1 683.886 2083.38 679.667C2083.61 679.592 2085.77 679.185 2088.17 678.761C2142.85 669.124 2148.09 589.882 2095.29 570.977ZM1448.34 202.292C1437.9 198.877 1422.87 200.015 1415.19 204.8C1413.91 205.597 1412.46 206.489 1411.96 206.781C1372.43 230.214 1398.08 294.196 1443.09 284.417C1485.94 275.105 1489.74 215.829 1448.34 202.292ZM1989.5 516.437C1945.91 504.828 1915.82 557.468 1948.33 588.463C1973.96 612.897 2017.35 595.947 2019.84 560.529C2021.25 540.422 2008.17 521.408 1989.5 516.437ZM2578.03 857.029C2556.59 848.501 2531.33 865.875 2530.6 889.641C2529.99 909.528 2549.41 929.307 2566.97 926.688C2567.45 926.616 2569.73 926.285 2572.04 925.952C2592.62 922.983 2605.67 903.039 2600.63 882.266C2599.12 876.053 2598.09 873.941 2593.56 867.696C2590.76 863.837 2584.73 859.696 2578.03 857.029ZM1685.13 345.434C1675.07 343.376 1663.54 352.199 1662.89 362.45C1661.87 378.421 1679.44 388.642 1692.45 379.644C1706.1 370.196 1701.52 348.789 1685.13 345.434ZM1586.64 295.522C1538.88 276.472 1500.82 332.559 1537.45 368.004C1563.47 393.176 1608.23 375.765 1611.61 339.159C1613.2 321.967 1601.45 301.43 1586.64 295.522ZM2473.92 813.834C2464.8 811.522 2454.22 817.435 2451.67 826.267C2446.67 843.556 2464.58 857.643 2479.51 848.155C2493.57 839.213 2490.11 817.939 2473.92 813.834ZM2515.22 839.84C2504.74 836.828 2493.39 843.974 2491.6 854.703C2488.49 873.376 2511.02 884.591 2523.91 870.789C2533.61 860.412 2528.94 843.788 2515.22 839.84ZM2634.4 931.084C2595.84 915.769 2553.88 948.028 2558.57 989.389C2562.91 1027.79 2604.16 1050.81 2638.62 1034.08C2682.98 1012.53 2680.39 949.354 2634.4 931.084ZM2207.94 687.285C2205.68 686.785 2201.13 687.896 2199.79 689.274C2194.2 695.045 2185.52 693.848 2182.18 686.846C2178.19 678.476 2173.87 676.096 2167.49 678.76C2165.2 679.714 2164.35 680.484 2161.65 684.017C2157.56 689.367 2148.82 689.384 2145.47 684.048C2139.87 675.103 2130.87 675.877 2125.46 685.769C2120.89 694.138 2116.88 695.132 2108.11 690.071C2098.73 684.653 2091.59 687.779 2090.57 697.752C2089.73 705.881 2081.81 710.156 2074.93 706.185C2068.24 702.322 2058.45 709.059 2059.91 716.521C2061.65 725.431 2053.5 734.323 2047.02 730.581C2041.1 727.166 2032.65 736.803 2035.23 744.019C2038.91 754.32 2036.63 759.202 2027.21 761.175C2016.84 763.348 2013.11 772.174 2019.64 779.101C2022.78 782.433 2023.36 787.235 2021.11 791.15C2019.58 793.792 2018.52 794.602 2013.93 796.617C2006.65 799.808 2005.27 808.519 2011.17 814.003C2017.12 819.524 2018.19 821.827 2017.04 826.625C2016.36 829.462 2016.14 829.773 2012.7 832.76C2004.58 839.807 2005.34 846.684 2014.83 851.863C2023.48 856.582 2024.65 860.844 2019.59 869.106C2013.99 878.252 2017.7 886.594 2027.56 887.021C2034.95 887.341 2039.07 894.744 2035.94 902.094C2031.77 911.909 2037.49 918.838 2048.65 917.487C2055.97 916.6 2061.27 922.495 2060.08 930.197C2059.23 935.702 2060.75 938.954 2065.46 941.679L2068.8 943.612L2074.36 941.982C2080.37 940.224 2082.34 940.258 2085.67 942.179C2087.75 943.38 2091.14 948.172 2090.58 949.132C2090.45 949.366 2090.57 950.601 2090.85 951.878C2092.82 960.737 2100.25 963.399 2108.23 958.107C2115.52 953.271 2122.75 955.062 2125.6 962.414C2126.98 965.954 2129.55 969.135 2131.41 969.601C2136.75 970.937 2141.65 969.576 2143.6 966.212C2147.79 958.992 2157.98 958.137 2162.1 964.657C2167.29 972.866 2177.3 972.006 2181.48 962.992C2185.45 954.436 2190.48 952.96 2198.64 957.952C2207.59 963.42 2215.98 960.361 2216.23 951.543C2216.48 942.56 2223.39 938.771 2233.19 942.233C2241.58 945.194 2248.38 939.118 2247.02 929.875C2245.95 922.647 2252.49 915.699 2258.7 917.468C2268.05 920.135 2275.31 911.376 2271.24 902.331C2267.75 894.561 2271.15 889.096 2281.02 886.638C2288.44 884.791 2290.59 882.292 2290.35 875.797C2290.26 873.307 2288.2 869.131 2286.62 868.218C2285.65 867.656 2284.35 862.029 2284.77 860.218C2285.74 856.081 2288.28 853.459 2293.16 851.56C2300.8 848.583 2301.84 837.246 2294.85 833.143C2287.96 829.097 2288.2 819.556 2295.32 814.57C2302.61 809.464 2301.13 800.442 2292.35 796.41C2283.83 792.502 2282.35 786.66 2287.86 778.721C2293.48 770.63 2288.73 760.672 2279.51 761.201C2272.64 761.594 2268.06 752.786 2271.31 745.425C2275.18 736.673 2269.82 729.933 2259.53 730.625C2250.56 731.229 2246.27 726.856 2247.08 717.931C2247.98 707.861 2242.06 703.355 2231.81 706.321C2222.36 709.056 2216.63 705.557 2216.25 696.825C2216.07 692.54 2212.34 688.253 2207.94 687.285ZM1644.52 368.246C1624.19 364.513 1606.93 382.056 1611.47 401.844C1615.94 421.329 1637.61 429.964 1654.38 418.939L1658.83 416.013L1662.62 409.468L1666.4 402.922L1666.68 397.842C1667.44 383.684 1657.69 370.665 1644.52 368.246ZM1812.3 465.517C1769.47 449.629 1726.42 489.24 1738.77 533.166C1747.24 563.285 1777.18 580.292 1807.34 572.12C1821.28 568.343 1831.47 561.035 1839.04 549.391C1851.19 530.702 1852.01 505.809 1841.02 489.58C1840.5 488.814 1839.84 487.782 1839.55 487.288C1834.29 478.323 1823.42 469.643 1812.3 465.517ZM1483.84 290.254C1471.67 286.162 1455.58 287.639 1444.8 293.838C1420.21 307.977 1412.68 341.731 1429.21 363.755C1439.04 376.853 1457.56 385.802 1471.25 384.06C1499.35 380.483 1515.88 362.374 1516.67 334.292C1516.73 332.186 1514.84 321.354 1514.36 321.074C1514.17 320.963 1513.69 319.811 1513.28 318.515C1509.45 306.242 1497.63 294.89 1483.84 290.254ZM2464.58 861.591C2459.05 860.07 2451.45 858.901 2446.85 858.864C2438.06 858.793 2435.27 859.122 2427.5 861.147C2393.27 870.07 2371.63 901.214 2375.22 936.376C2376.7 950.891 2383.75 966.197 2393.85 976.836C2419.35 1003.68 2460.33 1006.05 2489.83 982.398C2532.18 948.433 2517.05 876.021 2464.58 861.591ZM1896.64 538.94C1867.13 527.677 1834.95 554.565 1840.33 585.976C1846.7 623.13 1893.45 634.733 1916.26 604.82C1933.49 582.22 1923.67 549.26 1896.64 538.94ZM1678.39 427.018C1646.34 418.515 1612.21 439.487 1607.64 470.486C1602.62 504.587 1624.56 533.572 1657.91 536.895C1660.34 537.136 1668.36 537.125 1669.1 536.879C1669.34 536.8 1671.57 536.378 1674.05 535.938C1695.19 532.207 1715.43 512.031 1718.04 492.103C1722.11 460.974 1705.87 434.31 1678.39 427.018ZM2370.27 831.693C2349.59 825.117 2329.62 843.823 2334.82 864.909C2340.15 886.542 2365.64 893.61 2381.84 877.948C2396.69 863.592 2390.3 838.061 2370.27 831.693ZM1971.72 603.22C1951.55 597.907 1932.94 614.155 1936.13 634.291C1939.38 654.75 1962.08 664.652 1979.63 653.262L1983.91 650.489L1987.69 643.941C1997.06 627.704 1989.28 607.842 1971.72 603.22ZM2541.3 935.031C2523.35 931.271 2510.86 950.065 2521.48 964.86C2530.98 978.102 2553.4 972.149 2555.15 955.92C2555.54 952.259 2554.38 945.278 2553.27 944.637C2552.93 944.442 2552.53 943.834 2552.39 943.287C2551.7 940.739 2545.11 935.83 2541.3 935.031ZM1585.27 386.221C1573.39 382.345 1570.13 381.932 1561.07 383.159C1531.83 387.12 1513.47 421.004 1527.13 445.777C1527.88 447.139 1528.52 448.483 1528.55 448.766C1528.61 449.311 1530.79 452.418 1533.16 455.311C1541.27 465.25 1562.39 474.089 1570.85 471.092C1571.09 471.007 1572.94 470.682 1574.96 470.37C1578.36 469.845 1588.19 466.47 1588.66 465.669C1588.77 465.474 1589.63 464.924 1590.58 464.446C1602.29 458.543 1611.91 440.555 1611.42 425.496C1610.88 409.049 1598.57 390.562 1585.27 386.221ZM1392.78 286.121C1364.83 281.931 1348.59 313.833 1368.32 334.164C1375.85 341.925 1389.54 343.998 1399.91 338.947C1423.73 327.337 1418.7 290.005 1392.78 286.121ZM2013 653.949C2007.83 652.71 2005.05 652.24 2003.45 652.336C2002.85 652.371 2001.26 652.372 1999.91 652.337C1980.92 651.841 1961.35 670.035 1959.3 690.103C1955.28 729.463 2001.02 752.713 2030.64 726.363C2054.96 704.729 2044.42 661.483 2013 653.949ZM2639.73 1044.84C2628.71 1042.86 2618.22 1050.74 2617.39 1061.63C2615.85 1081.92 2642.39 1090.39 2652.37 1072.79C2658.95 1061.19 2652.61 1047.17 2639.73 1044.84ZM1494.81 388.63C1473.75 384.109 1455.89 402.783 1461.56 423.384C1468.22 447.583 1499.7 451.625 1512.32 429.904C1521.93 413.365 1513.1 392.559 1494.81 388.63ZM2519.36 980.899C2493.7 974.144 2474.08 1001.6 2488.76 1023.71C2496.44 1035.28 2513.8 1039.33 2525.59 1032.3C2546.99 1019.55 2543.06 987.14 2519.36 980.899ZM1911.56 636.632C1861.31 620.911 1819.98 670.851 1844.56 717.596C1846.4 721.101 1852.15 728.274 1855.32 731.02C1862.54 737.27 1865.57 739.111 1873.94 742.33C1895.24 750.512 1921.3 743.577 1936.28 725.747C1961.46 695.775 1948.24 648.105 1911.56 636.632ZM1717.51 526.948C1707.6 525.343 1697.06 533.736 1696.23 543.903C1694.58 564.062 1721.11 572.647 1731.17 555.212C1737.88 543.601 1730.87 529.11 1717.51 526.948ZM2337.09 884.566C2302.82 876.422 2274.37 907.498 2285.93 940.46C2290.94 954.719 2305.47 966.757 2319.01 967.847C2320.46 967.964 2321.89 968.197 2322.2 968.366C2326.26 970.58 2344.26 965.318 2351.78 959.72C2379.32 939.218 2370.17 892.426 2337.09 884.566ZM1815.8 587.725C1806.29 584.062 1804.37 583.57 1796.93 582.884C1763.07 579.762 1734.89 617.081 1747.44 648.423C1748.25 650.462 1749.14 652.706 1749.4 653.411C1753.48 664.357 1769.4 677.175 1782.43 680.005C1812.84 686.612 1842.83 664.07 1843.02 634.454C1843.03 632.732 1843.09 630.879 1843.14 630.335C1844.6 616.529 1829.5 593.001 1815.8 587.725ZM2581.48 1043.3C2543.64 1030.73 2510.55 1073.77 2532.39 1107.16C2555.12 1141.9 2608.95 1126.65 2610.65 1084.98C2611.38 1067.18 2598.67 1049.02 2581.48 1043.3ZM1739.97 564.18C1730.24 563.307 1721.24 569.722 1719.38 578.839C1715.49 597.988 1739.05 609.886 1752.02 595.325C1762.03 584.09 1754.84 565.515 1739.97 564.18ZM2702.28 1129.57C2676.56 1124.91 2655.18 1147.92 2661.96 1172.95C2670.88 1205.93 2715.92 1207.78 2728.32 1175.69C2735.77 1156.42 2722.69 1133.26 2702.28 1129.57ZM1372.31 363.024C1371.97 362.948 1369.41 361.943 1366.62 360.789C1353.76 355.478 1342.4 352.856 1327.47 351.756C1284.45 348.589 1243.9 366.253 1216 400.305C1211.63 405.641 1199.76 425.816 1197.76 431.292C1197.07 433.196 1195.94 436.157 1195.25 437.872C1193.89 441.252 1191.19 451.098 1190.42 455.479C1190.15 456.978 1189.66 459.769 1189.31 461.681C1188.07 468.484 1187.43 489.005 1188.33 492.707C1188.47 493.274 1188.85 496.092 1189.17 498.969C1189.88 505.217 1195.04 524.583 1197.4 529.856C1198.32 531.917 1199.33 534.246 1199.65 535.031C1213.91 570.593 1254.21 602.167 1293.94 608.889C1320.49 613.383 1341.25 611.08 1368.8 600.584C1371.13 599.696 1378.62 595.97 1380.5 594.765C1381.44 594.158 1382.45 593.637 1382.73 593.607C1384.39 593.429 1402.22 580.408 1405.7 576.837C1422.58 559.491 1429.79 549.437 1436.37 534.125C1460.59 477.677 1444.58 415.057 1396.35 377.655C1391.55 373.928 1374.38 363.478 1372.31 363.024ZM2645.05 1099.28C2613.35 1088.51 2593.6 1133.12 2622.65 1149.87C2648 1164.48 2675.54 1135.53 2659.82 1110.79C2656.09 1104.91 2651.79 1101.56 2645.05 1099.28ZM1507.7 447.369C1482.47 442.305 1464.58 471.795 1480.47 492.276C1497.34 514.032 1532.48 500.16 1530.29 472.607C1529.31 460.196 1520.04 449.846 1507.7 447.369ZM1673.92 545.921C1657.97 544.77 1647.88 561.296 1656.3 574.787C1662.01 583.942 1674.8 586.189 1683.67 579.592C1697.14 569.571 1690.64 547.128 1673.92 545.921ZM1573.12 492.581C1535.91 480.442 1500.25 513.234 1509.84 550.757C1515.9 574.463 1537.18 589.489 1561.95 587.556C1573.47 586.657 1585.39 580.667 1593.62 571.64C1601.48 563.024 1606.8 549.092 1606.17 538.78C1606.08 537.283 1606.14 535.816 1606.31 535.522C1606.48 535.228 1605.66 531.338 1604.49 526.878C1600.02 509.845 1588.95 497.748 1573.12 492.581ZM1971.53 737.267C1962.18 733.812 1945.37 735.036 1938.04 739.704C1931.96 743.579 1930.27 744.769 1928.98 746.069C1928.19 746.862 1926.8 748.262 1925.9 749.18C1920.36 754.796 1915.55 766.667 1915.17 775.694C1913.44 815.8 1962.59 835.831 1989.52 805.993C1996.52 798.231 2002.13 782.845 2000.35 776.278C2000.29 776.05 2000.15 774.552 2000.03 772.947C1998.94 757.863 1987.08 743.009 1971.53 737.267ZM2442.43 1009.46C2442.09 1009.4 2439.1 1008.31 2435.79 1007.05C2428.14 1004.12 2417.45 1001.08 2412.7 1000.46C2411.98 1000.37 2410.55 1000.14 2409.5 999.949C2342.85 987.74 2273.94 1031.96 2255.97 1098.47C2254.43 1104.16 2253.45 1108.6 2253.13 1111.26C2252.99 1112.39 2252.78 1113.5 2252.65 1113.72C2252.1 1114.66 2250.92 1132.34 2251.14 1136.2C2251.22 1137.59 2251.31 1139.72 2251.33 1140.94C2251.63 1157.26 2256.97 1178.07 2264.95 1194.05C2266.47 1197.08 2267.95 1200.15 2268.25 1200.86C2269.05 1202.74 2278.31 1216.55 2280.51 1219.14C2303.01 1245.6 2326.62 1260.35 2357.78 1267.41C2362.2 1268.42 2366.27 1269.26 2366.82 1269.29C2367.38 1269.33 2369.74 1269.6 2372.06 1269.9C2386.61 1271.78 2404.73 1270.55 2420.66 1266.6C2435.45 1262.93 2447.46 1257.66 2462.65 1248.18C2466.31 1245.9 2472.28 1241.28 2478.68 1235.78C2499.6 1217.81 2518.87 1182.65 2521.99 1156.72C2522.08 1156 2522.39 1153.51 2522.67 1151.18C2528.36 1105.05 2510.97 1061.18 2474.33 1029.25C2470.53 1025.94 2444.65 1009.89 2442.43 1009.46ZM1384.2 406.56C1394.07 415.91 1406.07 431.611 1407.08 436.506C1407.14 436.751 1407.88 438.451 1408.75 440.283C1412.09 447.39 1416.53 463.648 1417.04 470.671C1417.21 473.027 1417.42 475.15 1417.5 475.389C1422.06 488.851 1408.58 529.312 1394.09 545.687C1351.63 593.641 1281.48 592.663 1239.8 543.535C1231.88 534.197 1222.45 514.676 1220.36 503.282C1218.95 495.608 1218.26 490.653 1218.2 487.793C1218.17 486.239 1218.06 484.757 1217.94 484.499C1216.84 481.983 1219.48 461.046 1221.95 452.772C1225.92 439.464 1236.05 421.667 1244.46 413.199C1248.44 409.188 1254.32 403.86 1255.03 403.621C1255.42 403.486 1255.93 403.066 1256.15 402.688C1257.16 400.93 1274.46 390.493 1277.61 389.736C1277.85 389.679 1280.14 388.802 1282.7 387.787C1315.59 374.774 1359.15 382.832 1384.2 406.56ZM1708.61 593.083C1699.09 589.107 1685.62 589.523 1674.3 594.142C1629.71 612.344 1649.29 685.351 1697 678.831C1743.81 672.435 1752.1 611.239 1708.61 593.083ZM2777.63 1214.21C2769.43 1211.22 2763.17 1209.26 2759.29 1208.46C2757.92 1208.18 2755.26 1207.61 2753.38 1207.2C2751.5 1206.79 2749.08 1206.36 2748 1206.23C2746.92 1206.11 2744.13 1205.76 2741.82 1205.45C2736.08 1204.68 2725.59 1204.39 2716.7 1204.75C2701.11 1205.38 2673.26 1212.78 2661.04 1219.54C2659.68 1220.29 2658.35 1220.94 2658.1 1220.98C2656.62 1221.24 2644.67 1228.76 2638.12 1233.55C2607.92 1255.64 2586.22 1292.05 2581.14 1329.17C2579.44 1341.59 2579.24 1346.26 2579.88 1358.81C2580.11 1363.37 2580.37 1367.29 2580.46 1367.54C2580.55 1367.78 2581.12 1371.25 2581.73 1375.25C2584.15 1391.24 2591.51 1411 2600.44 1425.52C2601.82 1427.77 2603.09 1429.93 2603.26 1430.3C2605.17 1434.59 2618.87 1450.53 2627 1457.92C2654.25 1482.68 2692.55 1497.43 2726.56 1496.27C2752.28 1495.38 2775.64 1489.19 2796.68 1477.66C2806.59 1472.24 2820.56 1461.64 2828.29 1453.7C2833.74 1448.09 2837.71 1443.64 2839.45 1441.19C2840.39 1439.86 2842.51 1437.04 2844.15 1434.92C2856.11 1419.55 2867.15 1391.71 2870.07 1369.56C2870.63 1365.32 2871.42 1349.12 2871.2 1346.5C2871.16 1346.07 2870.95 1342.95 2870.73 1339.55C2869.91 1327.26 2866.7 1311.93 2862.84 1301.97C2861.68 1298.98 2860.65 1296.14 2860.55 1295.65C2859.57 1291.07 2848.89 1271.95 2842.68 1263.68C2842.03 1262.81 2840.6 1260.92 2839.52 1259.47C2826.11 1241.64 2799.48 1222.16 2777.63 1214.21ZM1630.64 561.151C1618.09 557.795 1607.63 561.402 1598.92 572.097C1586.48 587.356 1602.06 618.902 1620.61 616.02C1621.25 615.922 1622.71 615.893 1623.86 615.957C1653.34 617.587 1659.36 568.835 1630.64 561.151ZM1812.47 686.058C1790.96 683.06 1781.03 711.815 1799.83 722.667C1813.79 730.731 1830.88 719.422 1829.1 703.291C1828.14 694.616 1821.04 687.253 1812.47 686.058ZM2587.2 1135.65C2542.71 1123.92 2513.03 1178.5 2547.39 1208.83C2555.28 1215.79 2569.22 1220.58 2577.6 1219.2C2578.1 1219.12 2580.31 1218.82 2582.51 1218.53C2600.75 1216.12 2615.67 1199.53 2617.84 1179.23C2619.83 1160.63 2605.69 1140.53 2587.2 1135.65ZM2643.48 1169.57C2629.93 1167.75 2619.42 1179.96 2622.92 1193.47C2626.03 1205.47 2640.82 1210.96 2651.25 1203.99C2665.98 1194.13 2660.97 1171.92 2643.48 1169.57ZM2266.79 955.514C2251.77 951.208 2227.86 956.233 2222.63 964.798C2222.4 965.176 2221.01 966.518 2219.54 967.781C2207.6 978.02 2203.4 1000.71 2210.31 1017.64C2220.42 1042.4 2250.22 1053.48 2274 1041.32C2310.96 1022.42 2306.29 966.836 2266.79 955.514ZM1340.87 421.72C1303.84 407.034 1260.13 431.8 1254.79 470.499C1249.14 511.381 1278.25 544.991 1319.3 544.992C1327 544.992 1340.63 541.43 1347.45 537.639C1360.06 530.626 1364.91 525.769 1372.49 512.61C1381.33 497.244 1383.12 488.015 1380.59 470.842C1377.35 448.862 1362.27 430.206 1340.87 421.72ZM1757.85 677.247C1740.09 671.5 1720.56 686.711 1721.77 705.341C1723.6 733.324 1759.98 742.294 1773.95 718.207C1782.87 702.831 1775 682.794 1757.85 677.247ZM3015.33 1406.3C2997.22 1399.31 2985.91 1396.67 2970.11 1395.71C2904.14 1391.74 2844.93 1437.52 2832.15 1502.37C2831.43 1505.99 2830.92 1509.3 2831.02 1509.72C2831.11 1510.13 2831 1510.78 2830.79 1511.16C2830.57 1511.54 2830.22 1514.66 2830.02 1518.09C2829.82 1521.52 2829.58 1525.31 2829.5 1526.51C2829.41 1527.71 2829.53 1528.8 2829.76 1528.93C2829.98 1529.06 2830.02 1529.43 2829.84 1529.74C2829.49 1530.35 2830.08 1542.24 2830.53 1543.7C2830.68 1544.16 2831.04 1546.55 2831.33 1549C2834.74 1577.37 2853.31 1610.28 2876.9 1629.75C2895.2 1644.85 2921.04 1656.77 2940.2 1658.94C2941.73 1659.11 2943.24 1659.4 2943.56 1659.59C2943.88 1659.77 2944.95 1659.96 2945.95 1660C2946.95 1660.04 2950.33 1660.25 2953.48 1660.46C2959.05 1660.84 2960.27 1660.86 2968.13 1660.66C2985.37 1660.22 3008.15 1654.12 3023.55 1645.81C3025.4 1644.81 3027.66 1643.6 3028.58 1643.12C3036.36 1639.03 3048.7 1629.53 3056.39 1621.71C3074.65 1603.17 3087.87 1578.56 3092.48 1554.54C3104.24 1493.3 3069.92 1427.36 3015.33 1406.3ZM1872.21 752.601C1834.43 741.345 1798.25 771.9 1803.45 810.668C1805.17 823.507 1811.16 834.366 1822.16 844.591C1830.89 852.707 1847.55 857.689 1861.55 856.369C1890.37 853.649 1913.66 825.03 1909.25 797.735C1908.13 790.782 1904.52 778.921 1903.31 778.224C1903.17 778.139 1902.11 776.501 1900.97 774.585C1895.32 765.072 1883.34 755.92 1872.21 752.601ZM1342.14 457.803C1365.84 483.315 1341.46 522.784 1307.83 513.359C1283.23 506.462 1275.9 473.2 1295.22 456.057C1308.84 443.965 1330.02 444.753 1342.14 457.803ZM1487.22 546.974C1461.79 539.948 1443.8 570.177 1462 589.361C1469.71 597.484 1482.73 599.21 1492.78 593.441C1512.03 582.398 1508.49 552.85 1487.22 546.974ZM1797.86 728.984C1790.13 726.48 1780.96 730.377 1776.51 738.062C1768.12 752.561 1780.95 769.814 1796.97 765.57C1815.76 760.588 1816.39 734.98 1797.86 728.984ZM1964.52 832.301C1930.7 820.432 1891.88 843.363 1889.15 876.823C1885.39 922.778 1929.97 955.588 1968.9 935.528C1970.49 934.713 1971.97 933.998 1972.2 933.939C1981.07 931.65 1996.59 911.333 1999.41 898.311C2005.63 869.572 1990.81 841.528 1964.52 832.301ZM1699.3 689.103C1685.99 686.7 1674.4 698.481 1677.27 711.507C1680.54 726.312 1698.64 731.533 1709.25 720.731C1719.68 710.113 1713.9 691.736 1699.3 689.103ZM1577.53 628.932C1569.19 625.385 1556.1 621.543 1553.96 622.017C1553.54 622.109 1552.83 621.973 1552.39 621.715C1548.03 619.198 1521.38 620.347 1508.06 623.626C1504.3 624.549 1501.61 625.501 1491.09 629.626C1479.95 633.99 1464.35 645.121 1454.83 655.489C1441.59 669.907 1429.74 693.776 1427.93 709.654C1427.79 710.838 1427.55 712.045 1427.38 712.335C1426 714.729 1425.85 733.671 1427.13 744.132C1432.11 784.795 1464.44 823.05 1502.81 833.698C1509.92 835.67 1513.27 836.44 1516.08 836.747C1517.62 836.916 1519.13 837.196 1519.43 837.37C1520.33 837.888 1534.74 838.635 1539.13 838.392C1549.36 837.827 1553.24 837.201 1563.35 834.494C1576.52 830.968 1584.59 827.366 1595.83 820.012C1601.16 816.52 1602.44 815.512 1608.9 809.75C1631.82 789.304 1646.13 755.155 1644.16 725.601C1644.01 723.352 1643.76 719.589 1643.59 717.237C1642.97 708.451 1636.99 688.388 1632.56 680.227C1632.26 679.667 1631.42 678.047 1630.7 676.625C1620.83 657.215 1599.91 638.451 1577.53 628.932ZM1140.09 385.295C1106.88 376.07 1077.12 404.761 1085.9 437.528C1094.62 470.041 1135.48 480.015 1159.04 455.383C1180.22 433.254 1169.45 393.452 1140.09 385.295ZM1728.53 732.827C1709.96 726.42 1688.33 734.699 1678.31 752.041C1662.39 779.617 1681.31 814.135 1713.33 815.937C1717.41 816.166 1718.61 816.05 1724.7 814.821C1727.68 814.222 1735.67 811.214 1736.05 810.549C1736.15 810.373 1737.01 809.838 1737.96 809.36C1747.66 804.468 1756.56 789.83 1757.67 776.948C1758.39 768.533 1757.45 763.844 1752.86 753.002C1749.68 745.505 1738.58 736.296 1728.53 732.827ZM1781.91 770.607C1765.61 769.494 1755.53 787.679 1765.15 800.846C1774.91 814.208 1797.24 808.197 1799.01 791.732C1800.13 781.301 1792.03 771.298 1781.91 770.607ZM2554.11 1221.39C2527.78 1212.17 2498.98 1231.02 2497.52 1258.43C2495.1 1303.66 2554.49 1321.79 2577.05 1282.7C2581.12 1275.65 2582.52 1270 2582.64 1260.1C2582.83 1243.99 2570.38 1227.09 2554.11 1221.39ZM1448.09 588.732C1434 583.319 1419.46 595.222 1422.38 609.776C1425.78 626.675 1448.63 630.764 1457.15 615.998C1462.82 606.173 1458.34 592.668 1448.09 588.732ZM2173.58 1008.05C2160.96 1001.71 2144.51 996.288 2133.96 995C2125.4 993.955 2124.65 993.897 2117.7 993.749C2087.22 993.099 2050.58 1006.94 2032.12 1026.07C2031.19 1027.03 2029.99 1028.09 2029.43 1028.43C2020.56 1033.95 2003.97 1060.56 1997.57 1079.55C1988.85 1105.41 1990.24 1142 2000.81 1164.9C2003.6 1170.93 2007.96 1179.55 2008.84 1180.77C2009.28 1181.38 2010.36 1183.09 2011.24 1184.57C2026.42 1210.22 2056.4 1231.29 2088.02 1238.53C2097.2 1240.64 2108.59 1241.9 2116.61 1241.71C2124.18 1241.54 2126.79 1241.4 2128.02 1241.1C2128.74 1240.93 2131.87 1240.48 2134.97 1240.1C2149.41 1238.34 2168.09 1231.22 2182.56 1221.97C2208.29 1205.52 2229.61 1176.06 2235.68 1148.57C2236.05 1146.87 2236.67 1144.08 2237.05 1142.38C2248.57 1090.7 2220.72 1031.76 2173.58 1008.05ZM2035.37 929.811C2020.13 923.44 1999.77 928.512 1988.36 941.524C1972.71 959.363 1974.32 985.755 1992.02 1001.65C2004.26 1012.65 2020.8 1015.23 2037.47 1008.75C2058.15 1000.71 2069.16 971.764 2059.04 952.022C2058.18 950.353 2057.35 948.669 2057.19 948.279C2056.71 947.098 2053.12 942.395 2050.83 939.938C2048.3 937.232 2039.8 931.666 2035.37 929.811ZM1567.12 692.334C1602.54 723.853 1578.6 781.601 1531.5 778.294C1485.63 775.074 1469.7 715.438 1507.57 688.735C1508.92 687.784 1510.25 686.981 1510.53 686.95C1510.81 686.919 1511.93 686.311 1513.03 685.6C1515.8 683.8 1527.91 680.471 1531.71 680.465C1533.44 680.461 1535.05 680.397 1535.28 680.323C1535.52 680.248 1537.06 680.296 1538.72 680.429C1549.58 681.307 1559.32 685.386 1567.12 692.334ZM1768.3 813.373C1744.43 808.994 1725.1 829.894 1731.93 852.689C1739.96 879.499 1774.48 883.541 1788.51 859.314L1792.29 852.77L1792.78 846.907C1794.08 831.151 1783.08 816.086 1768.3 813.373ZM1844.07 860.251C1832.86 857.142 1815.9 858.894 1808.22 863.956C1807.02 864.745 1804.96 866.071 1803.64 866.904C1766.99 890.071 1782.52 949.967 1826.26 954.106C1855.93 956.914 1883.28 929.568 1878.75 901.642C1875.32 880.586 1862.59 865.382 1844.07 860.251ZM1408.26 618.389C1393.47 615.342 1381.46 629.475 1386.8 643.634C1389.76 651.486 1397.68 656.482 1405.97 655.732C1427.16 653.814 1429.07 622.675 1408.26 618.389ZM1142.26 481.968C1110.89 468.874 1076.31 494.71 1078.98 529.238C1081.2 557.93 1110.49 577.748 1138.3 569.374C1180.37 556.707 1182.98 498.969 1142.26 481.968ZM1669.34 805.437C1642.76 801.735 1626.6 833.685 1645.39 852.795C1657.16 864.764 1676.34 863.774 1687.04 850.646C1700.69 833.896 1690.71 808.413 1669.34 805.437ZM1928.91 956.896C1911.76 950.915 1889.01 949.988 1874.24 954.668C1829.04 968.991 1803.1 1010.05 1810.6 1055.41C1811.95 1063.58 1817.29 1079.88 1818.93 1080.83C1819.18 1080.97 1819.52 1081.57 1819.68 1082.17C1824.08 1097.93 1855.17 1122.41 1876.51 1126.91C1885.72 1128.85 1899.59 1130.25 1901.92 1129.48C1902.16 1129.4 1904.3 1129.23 1906.67 1129.1C1918.22 1128.46 1936.38 1121.92 1948.09 1114.19C1961.61 1105.26 1975.45 1088.45 1980.23 1075.12C1983.23 1066.77 1983.78 1065.05 1984.68 1061.28C1986.37 1054.2 1987.93 1039.34 1987.17 1037.57C1987.06 1037.32 1986.94 1035.84 1986.91 1034.28C1986.3 1002.66 1960.17 967.797 1928.91 956.896ZM2491.3 1288.44C2490.81 1288.3 2487.77 1287.02 2484.55 1285.61C2477.97 1282.72 2469.14 1279.62 2464.5 1278.59C2457.12 1276.94 2454.89 1276.52 2449.69 1275.8C2442.9 1274.87 2429.99 1274.19 2428.6 1274.7C2428.04 1274.91 2427.37 1274.96 2427.11 1274.81C2426.6 1274.51 2415.85 1275.34 2412.6 1275.92C2389.04 1280.15 2366.84 1289.4 2352.2 1301.1C2345.73 1306.26 2343.56 1308.14 2339.41 1312.18C2322.57 1328.56 2309.67 1350.46 2303.8 1372.64C2302.37 1378.05 2301.03 1384.12 2300.86 1385.96C2300.79 1386.69 2300.47 1389.18 2300.16 1391.49C2299.5 1396.32 2298.96 1407.24 2299.17 1411.66C2299.46 1417.88 2299.88 1423.14 2300.15 1423.97C2300.3 1424.44 2300.82 1427.41 2301.29 1430.56C2303.54 1445.51 2310.16 1462.89 2318.99 1477.02C2320.12 1478.84 2321.35 1480.8 2321.7 1481.39C2322.06 1481.97 2323.15 1483.52 2324.13 1484.82C2325.1 1486.13 2326.6 1488.15 2327.47 1489.32C2344.28 1512.12 2380.55 1534.32 2406.08 1537.43C2407.26 1537.58 2408.45 1537.83 2408.72 1537.99C2410.11 1538.79 2429.65 1540.26 2434.34 1539.91C2435.87 1539.8 2437.25 1539.79 2437.42 1539.89C2442.5 1542.82 2479.15 1532.55 2495.73 1523.54C2503.33 1519.41 2507.57 1516.52 2517.58 1508.64C2534.78 1495.1 2551.42 1469.82 2558.72 1446.13C2561.09 1438.44 2561.84 1435.14 2563.34 1425.78C2563.79 1422.99 2564.65 1408.75 2564.55 1405.73C2564.5 1404.3 2564.43 1401.59 2564.39 1399.7C2563.91 1377.72 2552.78 1346.98 2538.51 1328.28C2537.85 1327.42 2536.63 1325.8 2535.78 1324.67C2530.56 1317.71 2521.93 1309.22 2513.23 1302.49C2508.34 1298.71 2493.15 1288.97 2491.3 1288.44ZM1361.41 637.839C1302.25 614.674 1251.88 685.503 1291.71 735.826C1322.11 774.223 1386.87 759.524 1399.27 711.416C1400.75 705.67 1401.78 695.279 1401.22 691.728C1401.1 691.01 1400.74 688.223 1400.41 685.535C1397.99 665.916 1381.45 645.689 1361.41 637.839ZM2805.14 1492.07C2791.77 1490.31 2780.96 1501.41 2783.54 1514.25C2786.2 1527.45 2801.52 1533.82 2812.64 1526.34C2826.57 1516.97 2821.59 1494.22 2805.14 1492.07ZM1738.34 876.766C1704.32 863.054 1666.58 885.74 1661.86 922.744C1660.86 930.58 1662.88 943.587 1666.29 951.348C1667.57 954.264 1669.62 958.302 1669.89 958.459C1670.01 958.532 1671.15 960.119 1672.42 961.985C1679.9 973.007 1696.86 983.256 1709.68 984.499C1734.51 986.91 1754.47 977.123 1766.19 956.784C1775.21 941.132 1776.28 925.304 1769.53 907.376C1764.6 894.262 1752.64 882.531 1738.34 876.766ZM1187.96 569.185C1184.75 567.987 1180.05 567.176 1178.39 567.531C1177.69 567.678 1176.85 567.638 1176.51 567.442C1175.38 566.791 1164.77 570.034 1161.65 571.982C1134.92 588.687 1146.26 630.073 1177.6 630.199C1212.93 630.341 1221.22 581.567 1187.96 569.185ZM1026.19 480.317C1021.03 478.37 1016.15 477.059 1012.59 476.66C934.429 467.928 899.575 567.336 967.214 606.07C1034.37 644.525 1102.45 564.61 1056.08 501.766C1050.22 493.824 1037.16 484.452 1026.19 480.317ZM1262.36 626.041C1237.36 620.025 1220.36 649.59 1237.93 668.534C1252.11 683.829 1278.67 674.959 1281.39 654.021C1283.05 641.185 1274.79 629.032 1262.36 626.041ZM1630.69 850.265C1629.45 850.071 1627.96 849.665 1627.36 849.364C1618.89 845.064 1597.74 851.412 1588.01 861.177C1567.13 882.134 1575.38 921.913 1602.44 930.655C1603.89 931.126 1605.99 931.844 1607.1 932.249C1614.46 934.937 1632.45 932.879 1638.78 928.624C1639.85 927.901 1641.14 927.072 1641.64 926.783C1652.26 920.602 1661.29 904.961 1660.99 893.257C1660.98 892.672 1661.04 891.574 1661.12 890.817C1661.58 886.735 1658.21 874.496 1655.22 869.36C1650.52 861.306 1637.76 851.379 1630.69 850.265ZM1794.12 950.212C1767.97 947.269 1752.54 979.121 1771.07 997.818C1790.61 1017.53 1824.62 998.934 1818.34 971.97C1817.69 969.2 1814.89 962.552 1814.2 962.155C1813.93 961.999 1812.95 960.813 1812.03 959.517C1808.99 955.279 1800.66 950.947 1794.12 950.212ZM2282.08 1236.12C2267.75 1233.86 2254.49 1242.36 2250.51 1256.35C2243.46 1281.09 2270.73 1301.1 2292.7 1287.29C2313.84 1274 2306.79 1240.01 2282.08 1236.12ZM2758.02 1523.46C2747.67 1518.83 2730.35 1514.05 2720.95 1513.24C2699.52 1511.39 2681.36 1513.07 2665.85 1518.36C2662.86 1519.38 2659.72 1520.39 2658.87 1520.62C2655.02 1521.63 2643.77 1527.02 2636.13 1531.52C2601.84 1551.71 2577.26 1590.18 2572.97 1630.37C2572.38 1635.88 2572.04 1643.36 2572.19 1647.38C2572.83 1663.87 2575.26 1677.4 2579.58 1688.53C2580.74 1691.51 2581.77 1694.36 2581.86 1694.86C2582.07 1695.9 2585.31 1702.9 2587.57 1707.19C2598.96 1728.78 2617.33 1747.84 2638.52 1760.08C2652.97 1768.42 2668.88 1773.9 2686.31 1776.53C2691.05 1777.24 2706.41 1777.94 2710.82 1777.63C2713.22 1777.47 2716.82 1777.23 2718.81 1777.1C2720.81 1776.97 2722.83 1776.75 2723.3 1776.6C2723.77 1776.45 2727.27 1775.77 2731.09 1775.1C2734.9 1774.42 2740.75 1772.93 2744.09 1771.78C2747.43 1770.63 2751.2 1769.35 2752.49 1768.94C2758.15 1767.11 2778.6 1756.43 2779.54 1754.8C2779.71 1754.51 2780.8 1753.67 2781.96 1752.92C2798.36 1742.4 2820.17 1715.51 2827.04 1697.33C2830.95 1687 2833.05 1679.95 2835.02 1670.61C2836.84 1661.94 2838.25 1643.82 2837.44 1639.65C2837.3 1638.93 2837.23 1638.05 2837.29 1637.7C2837.47 1636.56 2836.31 1625.33 2835.71 1622.5C2830.1 1595.92 2821 1576.61 2805.7 1558.85C2792.34 1543.32 2777.02 1531.95 2758.02 1523.46ZM2224.64 1217.9C2196.24 1210.17 2174.01 1241.45 2190.54 1265.88L2193.42 1270.14L2200.76 1274.38C2206.47 1277.68 2208.61 1278.66 2210.42 1278.82C2211.7 1278.93 2213.2 1279.07 2213.73 1279.13C2221.33 1280.02 2231.08 1276.57 2237.51 1270.72C2255.22 1254.58 2247.82 1224.2 2224.64 1217.9ZM1111.59 578.643C1057.28 562.109 1024.05 634.271 1073.07 662.313C1119.8 689.05 1165.67 628.998 1128.55 589.666C1125.11 586.023 1115.67 579.882 1111.59 578.643ZM2991.24 1665.85C2970.03 1660.3 2950.9 1680.17 2957.3 1701.11C2963.29 1720.73 2988.08 1727.37 3003.24 1713.43C3019.24 1698.72 3012.35 1671.37 2991.24 1665.85ZM2609.28 1452.55C2582.83 1442.18 2551.53 1460.4 2547.31 1488.61C2541.34 1528.63 2585.54 1557.21 2618.7 1534.77C2650.25 1513.41 2644.88 1466.51 2609.28 1452.55ZM1196.99 640.678C1196.13 640.507 1193.5 639.935 1191.15 639.407C1187.06 638.488 1179.91 637.64 1178.99 637.966C1178.75 638.051 1177.68 638.079 1176.61 638.029C1141.58 636.375 1113.56 679.464 1127.06 714.223C1150.23 773.877 1238.67 754.219 1235.4 690.143C1234.34 669.557 1214.65 644.186 1196.99 640.678ZM2314.65 1287.01C2304.67 1284.42 2293.37 1291.48 2291.55 1301.44C2288.06 1320.59 2311.16 1332.3 2324.09 1317.93C2333.59 1307.37 2328.47 1290.61 2314.65 1287.01ZM1381.19 757.903C1361.48 755.684 1345.57 774.393 1351.03 793.356C1357.86 817.071 1389.69 821.069 1402.04 799.764C1412.18 782.281 1401.16 760.15 1381.19 757.903ZM2912.41 1658.38C2903.97 1655.39 2891.21 1653.72 2885.85 1654.9C2884.92 1655.11 2882.36 1655.58 2880.16 1655.96C2844.21 1662.12 2824.06 1700.17 2837.4 1736.74C2845.01 1757.62 2869.24 1773.49 2892.8 1773.03C2920.08 1772.49 2946.34 1750.76 2949.98 1725.71C2951.39 1715.97 2951.41 1710.2 2950.03 1703.03C2946.03 1682.17 2931.77 1665.25 2912.41 1658.38ZM1548.98 872.601C1530.67 866.421 1506.52 882.551 1510.71 898.163C1510.85 898.685 1510.82 899.364 1510.64 899.672C1510.02 900.754 1511.95 908.39 1513.63 911.509C1525.86 934.125 1559.43 930.82 1565.66 906.384C1569.21 892.501 1561.46 876.816 1548.98 872.601ZM1766.6 1005.7C1756.81 1002.32 1741.9 1003.7 1739.28 1008.25C1739.14 1008.48 1737.9 1009.5 1736.51 1010.52C1714.31 1026.73 1733.55 1064.65 1761.04 1058.83C1786.72 1053.39 1790.84 1014.08 1766.6 1005.7ZM2262.25 1298.32C2222.07 1282.97 2180.27 1321.59 2191.85 1363.38C2204.05 1407.42 2262.25 1417.24 2288.04 1379.61C2307.98 1350.51 2295.45 1311.01 2262.25 1298.32ZM1260.05 720.213C1236.21 715.49 1217.8 736.383 1226.62 758.149C1238.41 787.217 1281.96 777.063 1280.37 745.615C1279.82 734.673 1269.8 722.143 1260.05 720.213ZM1416.02 814.595C1392.14 805.958 1369.95 835.689 1384.41 856.945C1389.77 864.823 1403.69 871.885 1409.27 869.554C1409.52 869.448 1410.98 869.214 1412.51 869.034C1440.95 865.7 1443.6 824.572 1416.02 814.595ZM2160.04 1250.52C2135.88 1243.64 2110.38 1256.79 2102.79 1280.04C2088.19 1324.78 2139.09 1359.99 2176.27 1330.86C2204.59 1308.67 2194.85 1260.42 2160.04 1250.52ZM1477.27 857.033C1450.78 845.73 1419.63 866.413 1418.94 895.761C1417.97 936.699 1470.25 954.979 1495.38 922.491C1501.62 914.436 1506.06 898.583 1503.94 891.982C1503.86 891.746 1503.54 890.145 1503.22 888.423C1500.67 874.719 1490.83 862.818 1477.27 857.033ZM2984.21 1727.02C2969 1721.02 2949.75 1732.83 2947.47 1749.55C2944.32 1772.69 2968.82 1789.49 2989.03 1778.04C3010.12 1766.08 3007.29 1736.12 2984.21 1727.02ZM1675.69 979.235C1662.39 973.623 1645.44 972.687 1630.75 976.751C1625.62 978.168 1621.83 979.76 1613.61 983.941C1611.93 984.798 1605.77 989.416 1602.03 992.619C1580.43 1011.14 1573.12 1047.43 1585.8 1073.22C1586.77 1075.19 1587.6 1077.03 1587.64 1077.29C1587.8 1078.37 1595.86 1089.57 1598.27 1092.05C1608.33 1102.42 1625.11 1111.52 1637.15 1113.14C1643.92 1114.04 1654.24 1114.45 1655.94 1113.88C1656.17 1113.8 1657.72 1113.58 1659.36 1113.39C1670.33 1112.12 1690.73 1103.24 1693.43 1098.55C1693.57 1098.31 1694.8 1097.21 1696.16 1096.12C1734.7 1065.16 1723.16 999.271 1675.69 979.235ZM1957 1143.37C1941 1137.91 1921.84 1147.82 1917.37 1163.88C1909.28 1192.88 1940.52 1215.44 1965.47 1198.61C1986.04 1184.73 1980.95 1151.55 1957 1143.37ZM1312.74 778.399C1254.61 762.07 1201.23 822.449 1228.18 874.041C1229.09 875.788 1229.87 877.44 1229.9 877.712C1229.99 878.389 1235.17 886.351 1236.94 888.516C1247.32 901.261 1261.4 910.21 1276.29 913.527C1289.7 916.514 1305.34 915.422 1316.78 910.698C1319.5 909.577 1322.07 908.527 1322.49 908.365C1322.91 908.203 1324.42 907.349 1325.85 906.468C1327.28 905.586 1328.66 904.83 1328.92 904.788C1329.42 904.707 1335.73 900.062 1338.22 897.933C1348.64 889.058 1362.35 864.665 1360.74 857.885C1360.64 857.462 1360.76 856.749 1361.02 856.299C1362.29 854.054 1362.2 841.768 1360.86 833.323C1360.01 828.005 1355.79 815.133 1354.33 813.446C1353.99 813.044 1353.52 812.215 1353.3 811.602C1349.01 799.792 1328.18 782.736 1312.74 778.399ZM1570.09 934.657C1526.74 920.94 1499.59 980.971 1538.88 1003.66C1572.28 1022.94 1612.34 982.932 1591.02 951.583C1590.1 950.221 1588.74 948.251 1588.01 947.204C1584.63 942.343 1576.59 936.713 1570.09 934.657ZM1021.82 625.234C999.856 618.283 979.523 638.377 986.397 660.241C992.863 680.803 1020.02 686.597 1033.93 670.379C1047.11 655.02 1040.72 631.215 1021.82 625.234ZM2002.73 1192.52C1986.17 1187.08 1971.91 1207.55 1982.22 1221.96C1987.33 1229.1 2004.76 1232.1 2008.05 1226.4C2008.33 1225.91 2008.99 1225.4 2009.51 1225.26C2010.03 1225.12 2011.59 1223.31 2012.97 1221.23C2020.05 1210.6 2015.05 1196.58 2002.73 1192.52ZM1792.45 1072.85C1784.53 1069.57 1771.32 1066.77 1767.19 1067.49C1766.52 1067.61 1765.78 1067.61 1765.56 1067.48C1760.53 1064.57 1731.13 1074.51 1723.16 1081.81C1722.66 1082.26 1720.62 1084.05 1718.62 1085.78C1672.98 1125.23 1699.76 1202.7 1760.61 1207.24C1818.68 1211.58 1856.06 1146.42 1823.31 1097.95C1820.81 1094.24 1818.39 1091 1817.95 1090.74C1817.51 1090.48 1816.33 1089.31 1815.33 1088.13C1811.01 1083.05 1801.08 1076.42 1792.45 1072.85ZM1891.3 1134.62C1881.75 1133.11 1871.86 1139.88 1870.01 1149.21C1865.81 1170.33 1893.8 1181.35 1904.62 1162.84C1911.44 1151.18 1904.61 1136.73 1891.3 1134.62ZM2084.67 1246.75C2079.26 1244.82 2071.98 1246.26 2067.1 1250.22C2054.56 1260.4 2060.05 1281.26 2075.83 1283.38C2099.2 1286.52 2106.89 1254.65 2084.67 1246.75ZM1083.69 673.467C1037.25 656.177 992.086 705.6 1013.63 750.138C1019.02 761.276 1025.3 767.902 1036.7 774.487C1073.07 795.485 1118.17 770.926 1120.43 728.887C1120.57 726.279 1120.61 723.941 1120.51 723.691C1120.41 723.442 1120.22 721.788 1120.09 720.017C1118.63 699.984 1103.73 680.927 1083.69 673.467ZM2041.85 1229.56C2031.14 1226 2019.3 1232.56 2016.87 1243.4C2013.19 1259.83 2031.67 1272.49 2045.93 1263.31C2058.31 1255.34 2055.76 1234.18 2041.85 1229.56ZM2538.32 1527.21C2535.38 1526.41 2532.18 1525.69 2531.22 1525.6C2526.33 1525.16 2522.18 1525.03 2520.97 1525.29C2520.22 1525.44 2518.3 1525.74 2516.68 1525.94C2466.5 1532.21 2466.83 1609 2517.07 1617.4C2573.26 1626.8 2593.21 1542.11 2538.32 1527.21ZM2940.82 1777.38C2931.77 1774.28 2912.64 1777.17 2909.82 1782.06C2909.59 1782.45 2909.04 1782.87 2908.58 1782.99C2907 1783.42 2901.16 1789.86 2899.05 1793.49C2883.65 1820.12 2907.19 1852.68 2937.34 1846.44C2941.76 1845.52 2950.06 1841.82 2950.88 1840.41C2951.12 1840 2951.66 1839.56 2952.09 1839.44C2953.51 1839.05 2958.6 1833.08 2960.79 1829.26C2972.04 1809.55 2962.51 1784.81 2940.82 1777.38ZM1181.7 762.139C1181.37 762.061 1179.32 761.523 1177.15 760.945C1113.77 744.02 1076.49 829.702 1132.79 862.919C1179.39 890.413 1233.85 842.7 1212.99 792.654C1207.81 780.226 1191.65 764.462 1181.7 762.139ZM1960.03 1218.82C1942.75 1212.57 1920.07 1221.86 1912.91 1238.11C1896.12 1276.24 1938.09 1310.86 1971.13 1286.14C1995.57 1267.84 1989.23 1229.38 1960.03 1218.82ZM2272.83 1401.24C2252.66 1400.14 2244.7 1426.08 2262.13 1436.1C2276.57 1444.4 2293.28 1432.42 2289.85 1416.23C2288.16 1408.23 2280.7 1401.67 2272.83 1401.24ZM1873.43 1172.79C1844.25 1161.82 1813.96 1185.94 1816.54 1218.09C1816.85 1221.93 1819.03 1229.16 1820.63 1231.64C1821.33 1232.72 1821.91 1233.85 1821.93 1234.15C1822.13 1237.13 1830.85 1245.56 1838.01 1249.69C1863.1 1264.18 1898.28 1248.01 1900.99 1220.75C1901.06 1220.02 1901.26 1217.94 1901.43 1216.12C1903.2 1197.26 1891.86 1179.71 1873.43 1172.79ZM2052.34 1279.16C2038.44 1273.12 2017.87 1273.39 2005.72 1279.77C2003.95 1280.7 2002.28 1281.48 2002.01 1281.52C1999.5 1281.84 1990.29 1289.25 1985.16 1295.06C1946.95 1338.39 1989.4 1406.13 2045.23 1390.9C2099.51 1376.09 2104.24 1301.72 2052.34 1279.16ZM2872.46 1773.99C2862.28 1771.66 2850.12 1781.21 2850.12 1791.52C2850.12 1807.89 2866.35 1816.91 2879.82 1808.02C2893.55 1798.94 2888.97 1777.77 2872.46 1773.99ZM2117.51 1341.14C2107.2 1337.47 2095 1345.02 2093.23 1356.14C2090.79 1371.42 2107.34 1383.24 2120.69 1375.75C2135.43 1367.49 2133.53 1346.84 2117.51 1341.14ZM2182.47 1378.66C2146.93 1363.69 2108.44 1396.08 2116.44 1434.22C2125.59 1477.84 2184.44 1487.28 2206.65 1448.69C2221.55 1422.81 2210.37 1390.4 2182.47 1378.66ZM2275.92 1447.31C2242.55 1434.24 2204.13 1455.42 2197.09 1490.76C2188.55 1533.69 2227.36 1570.59 2269.81 1559.87C2273.3 1558.99 2277.6 1557.51 2279.36 1556.59C2281.13 1555.66 2282.78 1554.87 2283.04 1554.83C2283.3 1554.78 2285.38 1553.47 2287.66 1551.91C2315.11 1533.11 2322.39 1497.49 2304.41 1469.97C2302.67 1467.32 2301.69 1466.14 2296.16 1460.06C2293.66 1457.32 2280.81 1449.23 2275.92 1447.31ZM2811.03 1756.32C2805.04 1754.28 2796.39 1755.03 2790.59 1758.09C2760.95 1773.76 2777.48 1818.29 2809.94 1810.2C2837.53 1803.33 2838.29 1765.61 2811.03 1756.32ZM2536.61 1634.08C2526.98 1631.47 2516.59 1637.7 2513.98 1647.65C2509.88 1663.31 2526.55 1676.79 2540.77 1669.32C2556.18 1661.22 2553.52 1638.67 2536.61 1634.08ZM1074.99 792.092C1064.44 790.664 1054.91 794.694 1047.33 803.789C1041.54 810.735 1041.37 826.239 1046.99 834.785C1063.98 860.603 1102.85 845.215 1098.28 814.483C1096.73 804.064 1085.8 793.555 1074.99 792.092ZM2092.84 1379.61C2077.51 1376.35 2064.92 1392.44 2071.93 1406.32C2082.55 1427.36 2113.94 1414.39 2106.64 1391.97C2104.68 1385.95 2099.08 1380.93 2092.84 1379.61ZM2413.14 1564.63C2355.15 1539.01 2281.33 1569.66 2261.12 1627.73C2257.39 1638.47 2256.02 1643.48 2254.44 1652.16C2249.49 1679.45 2258.26 1714.82 2275.65 1737.68C2277.38 1739.95 2279.15 1742.29 2279.59 1742.87C2294.55 1762.83 2325.04 1779.64 2353 1783.31C2357.99 1783.97 2373.74 1784.45 2374.96 1783.99C2375.21 1783.89 2377.06 1783.68 2379.07 1783.52C2421.18 1780.07 2464.07 1746.34 2475.89 1707.38C2478.86 1697.56 2480.57 1690.55 2481.04 1686.25C2482.29 1674.67 2482.4 1668.06 2481.52 1658.59C2480.44 1647.11 2476.48 1632.14 2472.07 1622.88C2471.14 1620.93 2470.33 1619.13 2470.28 1618.89C2469.98 1617.57 2463.15 1606.23 2460.42 1602.54C2447.96 1585.69 2432.19 1573.04 2413.14 1564.63ZM1788.75 1214.18C1767.82 1207.55 1754.8 1237.48 1773.79 1248.56C1784.99 1255.1 1798.86 1249.17 1801.71 1236.62C1803.88 1227.03 1798.19 1217.18 1788.75 1214.18ZM1894.75 1278.03C1886.86 1274.32 1873.5 1269.22 1868.13 1267.87C1859.44 1265.69 1856.94 1265.15 1851.76 1264.34C1813.24 1258.36 1772.55 1268.31 1742.22 1291.13C1711.46 1314.28 1688.62 1352.06 1684.73 1386.23C1684.59 1387.43 1684.3 1389.71 1684.08 1391.31C1682.95 1399.42 1682.94 1421.61 1684.06 1425.18C1684.21 1425.65 1684.56 1428.05 1684.84 1430.52C1685.61 1437.23 1689.68 1452.77 1692.46 1459.61C1693.81 1462.93 1695 1466.04 1695.1 1466.53C1695.94 1470.42 1711.46 1496.51 1713.74 1497.84C1714.19 1498.1 1714.66 1498.65 1714.78 1499.06C1715.23 1500.51 1725.46 1511.6 1730.66 1516.26C1748.02 1531.82 1773.98 1545.69 1793.93 1550.07C1806.06 1552.73 1812.26 1553.6 1822.69 1554.1C1829.21 1554.41 1846.75 1553.69 1848.1 1553.05C1848.36 1552.93 1851.16 1552.44 1854.31 1551.97C1861.55 1550.9 1871.54 1548.22 1878.52 1545.48C1881.49 1544.31 1884.15 1543.33 1884.43 1543.31C1889.8 1542.75 1912.78 1528.42 1925.72 1517.55C1948.97 1498.03 1969.72 1460.29 1972.84 1431.85C1972.96 1430.71 1973.14 1429.64 1973.24 1429.47C1974.39 1427.49 1975.06 1407.27 1974.31 1397.49C1973.77 1390.51 1973.33 1387.55 1971.17 1376.3C1963.65 1337.25 1930.8 1295.01 1894.75 1278.03ZM2752.68 1780.15C2734.27 1776.05 2721.8 1798.03 2734.78 1811.72C2741.88 1819.22 2754.44 1819.25 2761.83 1811.78C2771.99 1801.51 2766.72 1783.27 2752.68 1780.15ZM1697.55 1185.79C1657.03 1167.08 1605.18 1197 1600.73 1241.67C1600.61 1242.81 1600.44 1243.88 1600.35 1244.05C1600.25 1244.21 1600.2 1247.02 1600.23 1250.29C1600.6 1287.18 1628.08 1316.86 1664.76 1319.99C1668.59 1320.31 1671.95 1320.48 1672.23 1320.36C1672.5 1320.25 1674.58 1320.05 1676.85 1319.92C1707.1 1318.25 1736.3 1290.31 1739.57 1259.91C1743.09 1227.15 1727.48 1199.61 1697.55 1185.79ZM2555.04 1685.65C2548.84 1683.43 2537.92 1681.95 2535.29 1682.96C2535.04 1683.06 2533.14 1683.4 2531.07 1683.73C2480.41 1691.69 2481.74 1768.34 2532.65 1775.25C2587.64 1782.72 2607.24 1704.29 2555.04 1685.65ZM2049.79 1405.78C2000.77 1391.05 1957.11 1440.73 1978.53 1486.87C1996.18 1524.92 2044.31 1533.05 2075.02 1503.18C2078.93 1499.37 2088.17 1483.51 2089.02 1479.13C2089.32 1477.58 2089.8 1475.56 2090.08 1474.64C2090.58 1473.02 2091.43 1463.41 2091.32 1460.55C2090.56 1439.5 2079.49 1421.12 2061.38 1410.84C2057.2 1408.48 2053.78 1406.98 2049.79 1405.78ZM2177.32 1481.96C2170.4 1481.05 2163.78 1484.24 2160.38 1490.13C2150.65 1506.98 2173.66 1523.98 2186.83 1509.67C2195.89 1499.82 2190.35 1483.67 2177.32 1481.96ZM2701.01 1784.95C2685.27 1779.99 2666.65 1792.82 2665.48 1809.44C2663.36 1839.64 2702.13 1851.86 2717.22 1825.76C2726.59 1809.57 2719.07 1790.65 2701.01 1784.95ZM2129.07 1469.34C2097.7 1462.72 2080.71 1505.04 2108.33 1520.99C2134.25 1535.96 2161.88 1506.01 2145.41 1480.8C2142.94 1477.02 2133.25 1470.23 2129.07 1469.34ZM2403.93 1629.14C2416.23 1640.23 2423.91 1659.07 2422 1673.47C2421.89 1674.36 2421.75 1675.7 2421.7 1676.44C2420.6 1691.83 2405.67 1713.3 2392.62 1718.23C2392.16 1718.4 2389.56 1719.47 2386.83 1720.6C2367.07 1728.79 2336.1 1720.67 2325.88 1704.61C2325.55 1704.09 2324.34 1702.46 2323.2 1701.01C2316.7 1692.71 2312.52 1677.51 2313.49 1665.65C2313.64 1663.82 2313.78 1661.83 2313.81 1661.24C2314.27 1649.81 2326.09 1631.54 2337.8 1624.16C2359.05 1610.77 2385.79 1612.78 2403.93 1629.14ZM2622.64 1758.54C2613 1754.92 2598.13 1755.61 2588.91 1760.1C2587.31 1760.88 2585.81 1761.57 2585.58 1761.63C2583.9 1762.07 2577.16 1767.36 2573.28 1771.29C2560.74 1783.96 2557.47 1810.63 2566.72 1824.72C2567.61 1826.07 2568.58 1827.59 2568.87 1828.09C2579.5 1846.53 2608.15 1854.55 2627.55 1844.53C2629.13 1843.71 2630.62 1843 2630.86 1842.94C2634.28 1842.13 2643.98 1832.3 2647.68 1825.89C2662.32 1800.52 2650.62 1769.03 2622.64 1758.54ZM2179.61 1523.37C2173.54 1521.91 2172.34 1521.79 2168.13 1522.2C2148.58 1524.13 2136.7 1547.01 2146.56 1563.8C2153.54 1575.7 2168.14 1581.24 2180.19 1576.56C2182.03 1575.84 2183.72 1575.21 2183.95 1575.15C2188.46 1573.94 2196.21 1564.52 2198.05 1558.01C2202.11 1543.62 2193.05 1526.61 2179.61 1523.37ZM2229.85 1565.23C2209.31 1563.38 2200.65 1589.84 2218.44 1600.11C2223.98 1603.31 2227.81 1603.74 2233.73 1601.81C2252.74 1595.62 2249.71 1567.02 2229.85 1565.23ZM2674.73 1848.61C2648.51 1843.44 2629.97 1871.96 2645.92 1892.94C2661.59 1913.55 2694.38 1903.42 2696.1 1877.44C2696.97 1864.27 2687.18 1851.06 2674.73 1848.61ZM2089.9 1518.45C2069.8 1517.17 2061.06 1543.31 2078.26 1553.24C2096.19 1563.59 2115.03 1542.96 2103.14 1526.01C2100.32 1522 2094.65 1518.75 2089.9 1518.45ZM2187.84 1589.58C2150.23 1574.74 2111.45 1609.63 2122.17 1648.67C2131.07 1681.05 2170.51 1695.65 2197.45 1676.53C2202.2 1673.16 2203.52 1672.02 2206.31 1668.9C2226.17 1646.68 2222.84 1613.51 2198.97 1595.73C2193.94 1591.99 2193.95 1591.99 2187.84 1589.58ZM2121.27 1560.59C2100.78 1558.59 2091.81 1585.49 2109.54 1595.73C2123.97 1604.06 2141.2 1590.99 2137.16 1574.77C2135.36 1567.52 2128.37 1561.29 2121.27 1560.59ZM2540.16 1802.79C2511.18 1791.36 2479.16 1811.94 2477.17 1843.27C2476.98 1846.23 2476.9 1848.86 2477 1849.11C2477.1 1849.36 2477.43 1851.51 2477.73 1853.9C2478.34 1858.72 2481.42 1866.53 2484.56 1871.25C2485.7 1872.94 2486.9 1874.76 2487.23 1875.29C2498.53 1893.13 2531.99 1897.77 2550.18 1884.02C2561.73 1875.3 2573.08 1853.97 2569.95 1846.89C2569.83 1846.63 2569.74 1845.01 2569.73 1843.28C2569.72 1839.21 2567.22 1829.82 2564.9 1825.12C2559.91 1815.03 2551.15 1807.13 2540.16 1802.79ZM2475.9 1771.16C2458.87 1766.85 2445.88 1787.53 2456.86 1801.48C2469.44 1817.47 2495.27 1803.88 2489.69 1784.21C2488.01 1778.31 2482.13 1772.74 2475.9 1771.16ZM2603.12 1855.94C2575.46 1851.77 2559.22 1884.36 2579.16 1904C2595.51 1920.09 2624.43 1908.96 2626.25 1885.88C2627.37 1871.6 2616.87 1858.01 2603.12 1855.94ZM1653.52 1323.17C1627.28 1315.18 1600.44 1329.88 1596.52 1354.38C1596.01 1357.6 1595.45 1364.13 1595.64 1364.7C1595.72 1364.94 1595.83 1366.07 1595.88 1367.22C1596.13 1372.94 1599.28 1381.88 1602.78 1386.85C1603.84 1388.35 1604.98 1390.02 1605.32 1390.57C1615.24 1406.63 1645.16 1410.46 1662.92 1397.93C1669.23 1393.49 1670 1392.59 1674.82 1384.22L1679.34 1376.35L1680.2 1370.21C1681.53 1360.61 1679.84 1349.47 1676.18 1343.81C1675.47 1342.71 1674.88 1341.57 1674.86 1341.27C1674.61 1337.5 1660.06 1325.16 1653.52 1323.17ZM2022.04 1544.93C2014.93 1541.96 2006.6 1539.54 1998.54 1538.11C1991.07 1536.78 1977.29 1535.84 1974.5 1536.46C1973.9 1536.59 1973.22 1536.59 1972.98 1536.46C1969.01 1534.17 1934.69 1543.39 1923.44 1549.77C1918.7 1552.46 1911.64 1556.74 1911.48 1557.02C1911.38 1557.19 1909.77 1558.42 1907.89 1559.77C1906.01 1561.11 1903.31 1563.27 1901.88 1564.56C1900.45 1565.84 1898.46 1567.59 1897.46 1568.44C1881.22 1582.17 1864.5 1614.97 1862.45 1637.13C1861.96 1642.37 1861.36 1651.2 1861.4 1652.57C1862.37 1688.82 1875.27 1717.1 1901.7 1740.94C1908.17 1746.78 1928.51 1759.18 1935.29 1761.41C1951.03 1766.6 1957.83 1768.07 1969.53 1768.85C1976.46 1769.31 1976.5 1769.31 1983.67 1768.97C1995.87 1768.39 2010.13 1765.44 2019.41 1761.56C2021.88 1760.52 2024.12 1759.65 2024.38 1759.61C2024.65 1759.57 2027.28 1758.26 2030.22 1756.69C2033.17 1755.13 2036.29 1753.47 2037.16 1753.02C2063.21 1739.3 2088.09 1703.9 2092.35 1674.52C2092.58 1672.93 2092.97 1670.32 2093.21 1668.73C2093.71 1665.37 2094.4 1655.4 2094.35 1652.17C2094.23 1644.94 2094.14 1643.01 2093.89 1642.23C2093.73 1641.76 2093.52 1639.91 2093.41 1638.12C2093.15 1633.47 2088.06 1614.13 2085.68 1608.77C2084.58 1606.28 2083.55 1603.9 2083.4 1603.49C2075.28 1581.48 2048.63 1556.04 2022.04 1544.93ZM2436.18 1808.04C2399.92 1796.72 2366.84 1828.09 2376.63 1864.51C2382.6 1886.75 2403.56 1900.6 2427.13 1897.9C2475.11 1892.39 2482.16 1822.39 2436.18 1808.04ZM2035.07 1588.04C2038.02 1590.72 2040.73 1593.38 2041.09 1593.96C2041.45 1594.54 2042.12 1595.23 2042.57 1595.49C2045.56 1597.22 2055.06 1612.85 2058.37 1621.48C2078.69 1674.54 2041.12 1735.75 1986.35 1738.8C1984.01 1738.93 1981.68 1739.13 1981.18 1739.25C1978.96 1739.76 1965.7 1738.42 1959.49 1737.04C1888.75 1721.39 1867.4 1631.87 1923.41 1585.72C1955.5 1559.27 2004.46 1560.29 2035.07 1588.04ZM2205.94 1702.83C2172.8 1689 2141.39 1691.98 2114.65 1711.49C2095.95 1725.13 2082.04 1748.15 2079.29 1770.01C2078.55 1775.87 2078.06 1783.25 2078.34 1784.35C2078.49 1784.94 2078.5 1785.62 2078.37 1785.85C2077.85 1786.74 2079.92 1801.3 2081.28 1806.35C2091.67 1845.04 2128.59 1873.14 2167.84 1872.25C2236.62 1870.69 2277.26 1799.66 2244.26 1738.68C2237.07 1725.4 2218.59 1708.11 2205.94 1702.83ZM2001.29 1599.3C2000.63 1599.11 1998.24 1598.36 1995.96 1597.64C1981.44 1593.04 1966.5 1593.79 1954.24 1599.73C1952.64 1600.5 1951.11 1601.17 1950.85 1601.21C1950.59 1601.25 1948.54 1602.49 1946.3 1603.96C1903.06 1632.4 1915.35 1698.69 1965.89 1709.63C1984.67 1713.69 2008.28 1706.45 2019.86 1693.09C2020.3 1692.57 2021.69 1691.02 2022.95 1689.63C2025.78 1686.51 2031.33 1676.93 2032.2 1673.67C2032.56 1672.34 2033.22 1670.3 2033.68 1669.15C2034.72 1666.5 2035.91 1659.49 2035.92 1655.91C2035.92 1655.33 2035.97 1654.11 2036.04 1653.19C2036.84 1642.13 2030.91 1625.48 2022.64 1615.62C2017.55 1609.55 2005.98 1600.71 2001.29 1599.3ZM1658.43 1412.33C1644.97 1410.6 1634.67 1421.47 1637.32 1434.61C1640.98 1452.77 1665.69 1455.44 1672.98 1438.48C1677.82 1427.21 1670.4 1413.88 1658.43 1412.33ZM2347.56 1810.27C2332.51 1805.17 2315.32 1814.65 2311.62 1830.11C2306.63 1850.96 2325.41 1869.49 2345.96 1863.96C2372.7 1856.77 2373.82 1819.17 2347.56 1810.27ZM2285.45 1784.58C2273.31 1780.96 2259.54 1793.86 2262.37 1806.21C2265.12 1818.23 2275.66 1824.6 2286.81 1820.96C2304.87 1815.08 2303.94 1790.09 2285.45 1784.58ZM1996.53 1631.83C2016.92 1649.18 2001.14 1684 1974.45 1680.53C1944.02 1676.58 1941.15 1633.88 1970.77 1625.95C1980.51 1623.34 1988.76 1625.23 1996.53 1631.83ZM1836.62 1559.72C1835.18 1559.25 1833.63 1558.97 1833.17 1559.09C1832.7 1559.22 1831.92 1559.08 1831.42 1558.8C1830.92 1558.51 1830.03 1558.39 1829.44 1558.53C1828.85 1558.67 1826.99 1558.88 1825.3 1559.01C1793.26 1561.34 1793.72 1612.01 1825.79 1614.67C1859.77 1617.5 1869.07 1570.31 1836.62 1559.72ZM1656.66 1457.5C1652.24 1455.93 1644.71 1454.32 1643.88 1454.76C1643.56 1454.94 1642.98 1454.89 1642.6 1454.67C1638.64 1452.39 1619.43 1456.48 1610.79 1461.45C1605.3 1464.61 1605.23 1464.66 1602.02 1467.35C1564.27 1498.95 1582.96 1561.02 1631.82 1566.3C1634.4 1566.58 1636.71 1566.74 1636.95 1566.65C1637.19 1566.57 1638.56 1566.49 1639.99 1566.49C1670.94 1566.46 1695.29 1539.15 1693.98 1505.98C1693.18 1485.94 1676.79 1464.64 1656.66 1457.5ZM2276.77 1828.21C2244.71 1820.89 2228.16 1863 2256.66 1879.38C2279.33 1892.4 2306.44 1869.11 2296.22 1845.42C2295.63 1844.06 2295.12 1842.75 2295.07 1842.5C2294.22 1838.18 2283.4 1829.72 2276.77 1828.21ZM1563.69 1457.58C1554.64 1455.04 1547.02 1458.18 1542.31 1466.39C1533.85 1481.14 1547.01 1498.27 1563.38 1493.81C1581.83 1488.79 1582.05 1462.73 1563.69 1457.58ZM1514.05 1431.02C1488.56 1423.96 1468.45 1452.54 1483.6 1474.28C1493.01 1487.79 1513.57 1489.94 1525.35 1478.65C1541.21 1463.45 1534.89 1436.8 1514.05 1431.02ZM1467.13 1411.66C1455.1 1408.53 1443 1418.69 1443.88 1431.16C1445.04 1447.38 1463.85 1454.76 1475.71 1443.66C1486.49 1433.56 1481.63 1415.44 1467.13 1411.66ZM2056.11 1767.04C2040.57 1765.07 2029.28 1782.65 2037.77 1795.59C2049.53 1813.5 2076.2 1802.54 2072.4 1781.36C2071.19 1774.64 2063.64 1768 2056.11 1767.04ZM1542.12 1500.38C1491.43 1486.57 1451.35 1539.89 1478.84 1584.58C1481.83 1589.44 1486.24 1594.13 1492.03 1598.63C1508.37 1611.31 1535.81 1613.92 1551.57 1604.3C1561.17 1598.43 1561.52 1598.16 1567.74 1591.7C1595.51 1562.85 1580.95 1510.96 1542.12 1500.38ZM1464.61 1468.08C1442.86 1463.78 1424.85 1484.9 1432.73 1505.47C1443.49 1533.55 1485.16 1527.14 1486.9 1497.13C1487.69 1483.53 1477.84 1470.69 1464.61 1468.08ZM2042.84 1813.52C1983.72 1794.81 1942.09 1867.3 1987.96 1909.04C2004.37 1923.97 2033.55 1927.12 2051.3 1915.88C2052.25 1915.28 2053.24 1914.75 2053.5 1914.71C2054.01 1914.63 2057.93 1911.76 2061.24 1909.05C2072.38 1899.91 2080.34 1882.98 2080.61 1867.85C2080.77 1859.34 2076.51 1841.39 2073.99 1839.93C2073.81 1839.83 2073.29 1838.95 2072.84 1837.97C2068.54 1828.8 2054.2 1817.11 2042.84 1813.52ZM1605.63 1565.84C1583.05 1562.68 1573.95 1593.06 1594.81 1601.95C1605.64 1606.57 1618.55 1599.44 1620.53 1587.75C1622.22 1577.71 1615.05 1567.16 1605.63 1565.84ZM1973.62 1785.78C1952.97 1783.33 1943.99 1810.28 1961.98 1820.67C1972.55 1826.77 1983.91 1822.63 1988.88 1810.86C1993.35 1800.28 1985.38 1787.18 1973.62 1785.78ZM2106.39 1878.19C2097.1 1875.12 2086.23 1880.6 2083.14 1889.92C2076.93 1908.69 2098.96 1923.2 2113.77 1910.1C2124.3 1900.79 2120.13 1882.74 2106.39 1878.19ZM1918.03 1785.86C1880.29 1773.52 1847.63 1815.54 1868.8 1849.21C1885.78 1876.2 1926.19 1875.2 1941.76 1847.4C1955.01 1823.74 1943.64 1794.24 1918.03 1785.86ZM1374.98 1486.77C1350.6 1478.83 1326.93 1511.56 1343.87 1529.79C1344.45 1530.42 1345.07 1531.25 1345.23 1531.63C1346.78 1535.23 1358.42 1541.28 1364.45 1541.62C1397.74 1543.48 1406.65 1497.08 1374.98 1486.77ZM1434.58 1526.24C1408.56 1516.92 1380.13 1535.32 1378.02 1562.85C1375.79 1591.99 1402.21 1614.6 1430.68 1607.91C1471.33 1598.36 1474.1 1540.4 1434.58 1526.24ZM2168.51 1956.98C2166.57 1956.32 2163.96 1955.72 2162.72 1955.64C2161.47 1955.57 2160.22 1955.37 2159.94 1955.21C2151.29 1950.22 2126.39 1962.83 2118.74 1976.08C2101.65 2005.69 2127.39 2046.02 2159.64 2040.16C2166 2039 2168.56 2038.33 2172.09 2036.87C2174.31 2035.95 2176.21 2035.06 2176.31 2034.89C2176.41 2034.71 2177.27 2034.17 2178.22 2033.7C2182.45 2031.56 2189.25 2024.54 2192.44 2019.02C2205.95 1995.62 2194.44 1965.77 2168.51 1956.98ZM2103.05 1920.38C2091.79 1918.05 2083.14 1920.25 2075.58 1927.37C2054.8 1946.91 2074.64 1981.79 2102.31 1974.38C2129.08 1967.21 2129.64 1925.87 2103.05 1920.38ZM2048.12 1927.3C2031.62 1925.08 2020.73 1944.8 2031.29 1957.78C2039.79 1968.24 2055.51 1967.02 2062.23 1955.37C2069.08 1943.52 2061.86 1929.15 2048.12 1927.3ZM2276.47 2059.25C2258.55 2052.32 2228.87 2054.15 2223.96 2062.49C2223.76 2062.83 2223.12 2063.25 2222.54 2063.42C2216.93 2065.09 2205.86 2078.37 2201.57 2088.56C2184.78 2128.5 2215.63 2170.2 2259.03 2166.21C2294.89 2162.92 2318.51 2124.48 2305.44 2090.69C2303.19 2084.87 2302.64 2083.8 2299.58 2079.11C2294.67 2071.6 2283.44 2061.95 2276.47 2059.25ZM1942.28 1872.13C1898.53 1861.89 1870.45 1915.68 1903.88 1945.7C1926.05 1965.6 1962.28 1955.83 1971.95 1927.35C1979.91 1903.9 1965.79 1877.63 1942.28 1872.13ZM1341.16 1534.83C1317.15 1527.04 1286.64 1545.55 1285.85 1568.38C1285.83 1569.06 1285.7 1571.28 1285.56 1573.31C1285.14 1579.48 1286.03 1584.5 1288.99 1592.64C1297.53 1616.06 1331.79 1625.52 1352.73 1610.23C1369.61 1597.9 1375.94 1570.74 1365.59 1555.05C1364.88 1553.97 1364.05 1552.67 1363.76 1552.17C1359.35 1544.6 1350.64 1537.91 1341.16 1534.83ZM1814.92 1813.58C1793.11 1809.2 1774.76 1832.22 1783.96 1852.41C1797.05 1881.12 1839.69 1870.24 1837.45 1838.75C1836.58 1826.48 1827.24 1816.05 1814.92 1813.58ZM2005.77 1941.24C2005.42 1941.18 2003.61 1940.77 2001.75 1940.34C1998.39 1939.56 1993.07 1938.95 1991.59 1939.19C1991.16 1939.25 1989.23 1939.49 1987.28 1939.72C1984.28 1940.07 1982.38 1940.69 1976.49 1943.27C1954.22 1953 1950.94 1988.04 1970.88 2003.24C2005.99 2030.02 2048.27 1983.93 2019.32 1950.44C2017.41 1948.24 2007.54 1941.53 2005.77 1941.24ZM2075.76 1983.37C2070.02 1981.54 2066.63 1980.86 2064.08 1981.04C2063.02 1981.11 2061.99 1981.08 2061.79 1980.96C2061.6 1980.85 2059.51 1981.03 2057.14 1981.35C2043.77 1983.18 2033.9 1989.21 2027.09 1999.69C2005.58 2032.81 2033.69 2073.95 2071.74 2065.01C2113.02 2055.32 2115.93 1996.19 2075.76 1983.37ZM1857.56 1861.57C1829.09 1856.48 1812.03 1889.84 1832.88 1909.83C1847.46 1923.82 1873.36 1916.31 1878.68 1896.55C1882.81 1881.21 1872.57 1864.25 1857.56 1861.57ZM1271.9 1526.32C1264.62 1525.01 1256.29 1528.98 1252.5 1535.56C1243.91 1550.49 1258.02 1568.06 1274.48 1562.93C1293.15 1557.11 1291.21 1529.8 1271.9 1526.32ZM1427.53 1618.48C1417.29 1617.05 1407.59 1624.1 1405.99 1634.14C1402.74 1654.53 1430.14 1664.57 1440.63 1646.84C1447.61 1635.04 1440.82 1620.34 1427.53 1618.48ZM2135 2039.89C2121.97 2035.7 2106.02 2043.44 2101.05 2056.36C2089.99 2085.11 2125.04 2108.01 2147 2086.38C2161.55 2072.04 2154.91 2046.28 2135 2039.89ZM2178.35 2067.01C2153.66 2064.99 2149.41 2101.91 2174.03 2104.56C2183.22 2105.55 2196.53 2095.55 2194.77 2088.98C2194.63 2088.47 2194.75 2087.65 2195.03 2087.16C2198.54 2081.09 2187.51 2067.77 2178.35 2067.01ZM1928 1961.6C1921.92 1959.28 1912.93 1959.84 1906.74 1962.91C1876.8 1977.79 1892.94 2022.7 1925.53 2015.19C1952.63 2008.94 1954.35 1971.62 1928 1961.6ZM1982.63 2015.2C1982.28 2015.14 1980.35 2014.68 1978.34 2014.16C1943.33 2005.26 1910.78 2028.1 1907.32 2063.99C1906.55 2072.05 1909.62 2087.92 1912.96 2093.09C1913.64 2094.14 1914.23 2095.23 1914.27 2095.49C1914.42 2096.6 1919.63 2103.71 1922.94 2107.33C1927.11 2111.88 1941.68 2120.89 1947.04 2122.23C2002.98 2136.2 2042.56 2073.36 2004.86 2030.43C2001.15 2026.21 1985.82 2015.7 1982.63 2015.2ZM2082.74 2079.58C2076.51 2077.93 2069.74 2078.37 2064.87 2080.72C2063.34 2081.46 2061.87 2082.09 2061.6 2082.13C2056.59 2082.77 2048 2096.23 2047.44 2104.32C2045.6 2130.73 2077.83 2144.96 2095.92 2125.74C2110.22 2110.54 2102.91 2084.92 2082.74 2079.58ZM1891.93 2016.21C1878.19 2012.48 1864.59 2026.76 1869.13 2040.15C1874.68 2056.54 1896.25 2058.36 1903.84 2043.08C1909.25 2032.2 1903.56 2019.36 1891.93 2016.21ZM1873.77 2058.56C1847 2049.09 1818.89 2068.71 1817.37 2097.93C1817.29 2099.42 1817.3 2100.84 1817.4 2101.08C1817.49 2101.33 1817.74 2103.27 1817.96 2105.4C1820.76 2132.35 1852.98 2149.57 1878.1 2137.53C1912.79 2120.89 1910.08 2071.4 1873.77 2058.56Z" fill="#FADF4F"/>
</svg>